<?xml version="1.0" encoding="UTF-8" standalone="no"?>
<!DOCTYPE svg PUBLIC "-//W3C//DTD SVG 1.1//EN" "http://www.w3.org/Graphics/SVG/1.1/DTD/svg11.dtd">
<svg version="1.1" xmlns="http://www.w3.org/2000/svg" xmlns:xlink="http://www.w3.org/1999/xlink" preserveAspectRatio="xMidYMid meet" viewBox="0 0 640 640" width="640" height="640"><defs><path d="M483.58 100C488.27 100 492.07 103.8 492.07 108.49C492.07 172.13 492.07 354.57 492.07 418.21C492.07 422.9 488.27 426.7 483.58 426.7C396.87 426.7 145.21 426.7 58.49 426.7C53.8 426.7 50 422.9 50 418.21C50 354.57 50 172.13 50 108.49C50 103.8 53.8 100 58.49 100C145.21 100 396.87 100 483.58 100Z" id="a7ViukQjSw"></path><path d="M100 150L140 150L140 190L100 190L100 150Z" id="d8kN2XC30"></path><path d="M175 150L215 150L215 190L175 190L175 150Z" id="c2xgWnHO6f"></path><path d="M250 150L290 150L290 190L250 190L250 150Z" id="e2xB6WS8ND"></path><path d="M325 150L365 150L365 190L325 190L325 150Z" id="c3GPQzJzL"></path><path d="M400 150L440 150L440 190L400 190L400 150Z" id="gi8oDyZD2"></path><path d="M100 241L140 241L140 281L100 281L100 241Z" id="bH3Xjmiio"></path><path d="M175 241L215 241L215 281L175 281L175 241Z" id="a1dXMJUe75"></path><path d="M250 241L290 241L290 281L250 281L250 241Z" id="aEKr43yKf"></path><path d="M325 241L365 241L365 281L325 281L325 241Z" id="ayPU96znl"></path><path d="M400 241L440 241L440 281L400 281L400 241Z" id="a3EZh1xIGm"></path><path d="M100 332L140 332L140 372L100 372L100 332Z" id="d3OiRU5s7"></path><path d="M175 332L215 332L215 372L175 372L175 332Z" id="a12FOYo9Uk"></path><path d="M250 332L290 332L290 372L250 372L250 332Z" id="b6EDcKqKjd"></path><path d="M325 332L365 332L365 372L325 372L325 332Z" id="b3ebTAUqXN"></path><path d="M400 332L440 332L440 372L400 372L400 332Z" id="gTB0aL84X"></path></defs><g><g><g><g><filter id="shadow8071017" x="18" y="68" width="522.07" height="406.7" filterUnits="userSpaceOnUse" primitiveUnits="userSpaceOnUse"><feFlood></feFlood><feComposite in2="SourceAlpha" operator="in"></feComposite><feGaussianBlur stdDeviation="2.24"></feGaussianBlur><feOffset dx="16" dy="16" result="afterOffset"></feOffset><feFlood flood-color="#000000" flood-opacity="0.5"></feFlood><feComposite in2="afterOffset" operator="in"></feComposite><feMorphology operator="dilate" radius="1"></feMorphology><feComposite in2="SourceAlpha" operator="out"></feComposite></filter><path d="M483.58 100C488.27 100 492.07 103.8 492.07 108.49C492.07 172.13 492.07 354.57 492.07 418.21C492.07 422.9 488.27 426.7 483.58 426.7C396.87 426.7 145.21 426.7 58.49 426.7C53.8 426.7 50 422.9 50 418.21C50 354.57 50 172.13 50 108.49C50 103.8 53.8 100 58.49 100C145.21 100 396.87 100 483.58 100Z" id="a6jghruoOP" fill="white" fill-opacity="1" filter="url(#shadow8071017)"></path></g><g><use xlink:href="#a7ViukQjSw" opacity="1" fill-opacity="0" stroke="#000000" stroke-width="25" stroke-opacity="1"></use></g></g><g><g><filter id="shadow12970762" x="82" y="132" width="78" height="78" filterUnits="userSpaceOnUse" primitiveUnits="userSpaceOnUse"><feFlood></feFlood><feComposite in2="SourceAlpha" operator="in"></feComposite><feGaussianBlur stdDeviation="2.24"></feGaussianBlur><feOffset dx="2" dy="2" result="afterOffset"></feOffset><feFlood flood-color="#000000" flood-opacity="0.5"></feFlood><feComposite in2="afterOffset" operator="in"></feComposite><feMorphology operator="dilate" radius="1"></feMorphology><feComposite in2="SourceAlpha" operator="out"></feComposite></filter><path d="M100 150L140 150L140 190L100 190L100 150Z" id="b7WzArPRt" fill="white" fill-opacity="1" filter="url(#shadow12970762)"></path></g><use xlink:href="#d8kN2XC30" opacity="1" fill="#000000" fill-opacity="1"></use><g><use xlink:href="#d8kN2XC30" opacity="1" fill-opacity="0" stroke="#000000" stroke-width="12" stroke-opacity="1"></use></g></g><g><g><filter id="shadow2874283" x="157" y="132" width="78" height="78" filterUnits="userSpaceOnUse" primitiveUnits="userSpaceOnUse"><feFlood></feFlood><feComposite in2="SourceAlpha" operator="in"></feComposite><feGaussianBlur stdDeviation="2.24"></feGaussianBlur><feOffset dx="2" dy="2" result="afterOffset"></feOffset><feFlood flood-color="#000000" flood-opacity="0.5"></feFlood><feComposite in2="afterOffset" operator="in"></feComposite><feMorphology operator="dilate" radius="1"></feMorphology><feComposite in2="SourceAlpha" operator="out"></feComposite></filter><path d="M175 150L215 150L215 190L175 190L175 150Z" id="kavf1uVAf" fill="white" fill-opacity="1" filter="url(#shadow2874283)"></path></g><use xlink:href="#c2xgWnHO6f" opacity="1" fill="#000000" fill-opacity="1"></use><g><use xlink:href="#c2xgWnHO6f" opacity="1" fill-opacity="0" stroke="#000000" stroke-width="12" stroke-opacity="1"></use></g></g><g><g><filter id="shadow11901874" x="232" y="132" width="78" height="78" filterUnits="userSpaceOnUse" primitiveUnits="userSpaceOnUse"><feFlood></feFlood><feComposite in2="SourceAlpha" operator="in"></feComposite><feGaussianBlur stdDeviation="2.24"></feGaussianBlur><feOffset dx="2" dy="2" result="afterOffset"></feOffset><feFlood flood-color="#000000" flood-opacity="0.5"></feFlood><feComposite in2="afterOffset" operator="in"></feComposite><feMorphology operator="dilate" radius="1"></feMorphology><feComposite in2="SourceAlpha" operator="out"></feComposite></filter><path d="M250 150L290 150L290 190L250 190L250 150Z" id="b1nyhnxb2P" fill="white" fill-opacity="1" filter="url(#shadow11901874)"></path></g><use xlink:href="#e2xB6WS8ND" opacity="1" fill="#000000" fill-opacity="1"></use><g><use xlink:href="#e2xB6WS8ND" opacity="1" fill-opacity="0" stroke="#000000" stroke-width="12" stroke-opacity="1"></use></g></g><g><g><filter id="shadow16765609" x="307" y="132" width="78" height="78" filterUnits="userSpaceOnUse" primitiveUnits="userSpaceOnUse"><feFlood></feFlood><feComposite in2="SourceAlpha" operator="in"></feComposite><feGaussianBlur stdDeviation="2.24"></feGaussianBlur><feOffset dx="2" dy="2" result="afterOffset"></feOffset><feFlood flood-color="#000000" flood-opacity="0.5"></feFlood><feComposite in2="afterOffset" operator="in"></feComposite><feMorphology operator="dilate" radius="1"></feMorphology><feComposite in2="SourceAlpha" operator="out"></feComposite></filter><path d="M325 150L365 150L365 190L325 190L325 150Z" id="b2VVNGJ87G" fill="white" fill-opacity="1" filter="url(#shadow16765609)"></path></g><use xlink:href="#c3GPQzJzL" opacity="1" fill="#000000" fill-opacity="1"></use><g><use xlink:href="#c3GPQzJzL" opacity="1" fill-opacity="0" stroke="#000000" stroke-width="12" stroke-opacity="1"></use></g></g><g><g><filter id="shadow2741358" x="382" y="132" width="78" height="78" filterUnits="userSpaceOnUse" primitiveUnits="userSpaceOnUse"><feFlood></feFlood><feComposite in2="SourceAlpha" operator="in"></feComposite><feGaussianBlur stdDeviation="2.24"></feGaussianBlur><feOffset dx="2" dy="2" result="afterOffset"></feOffset><feFlood flood-color="#000000" flood-opacity="0.5"></feFlood><feComposite in2="afterOffset" operator="in"></feComposite><feMorphology operator="dilate" radius="1"></feMorphology><feComposite in2="SourceAlpha" operator="out"></feComposite></filter><path d="M400 150L440 150L440 190L400 190L400 150Z" id="a1IDpofYTW" fill="white" fill-opacity="1" filter="url(#shadow2741358)"></path></g><use xlink:href="#gi8oDyZD2" opacity="1" fill="#000000" fill-opacity="1"></use><g><use xlink:href="#gi8oDyZD2" opacity="1" fill-opacity="0" stroke="#000000" stroke-width="12" stroke-opacity="1"></use></g></g><g><g><filter id="shadow12321352" x="82" y="223" width="78" height="78" filterUnits="userSpaceOnUse" primitiveUnits="userSpaceOnUse"><feFlood></feFlood><feComposite in2="SourceAlpha" operator="in"></feComposite><feGaussianBlur stdDeviation="2.24"></feGaussianBlur><feOffset dx="2" dy="2" result="afterOffset"></feOffset><feFlood flood-color="#000000" flood-opacity="0.5"></feFlood><feComposite in2="afterOffset" operator="in"></feComposite><feMorphology operator="dilate" radius="1"></feMorphology><feComposite in2="SourceAlpha" operator="out"></feComposite></filter><path d="M100 241L140 241L140 281L100 281L100 241Z" id="b4zY8AjNn1" fill="white" fill-opacity="1" filter="url(#shadow12321352)"></path></g><use xlink:href="#bH3Xjmiio" opacity="1" fill="#000000" fill-opacity="1"></use><g><use xlink:href="#bH3Xjmiio" opacity="1" fill-opacity="0" stroke="#000000" stroke-width="12" stroke-opacity="1"></use></g></g><g><g><filter id="shadow9511312" x="157" y="223" width="78" height="78" filterUnits="userSpaceOnUse" primitiveUnits="userSpaceOnUse"><feFlood></feFlood><feComposite in2="SourceAlpha" operator="in"></feComposite><feGaussianBlur stdDeviation="2.24"></feGaussianBlur><feOffset dx="2" dy="2" result="afterOffset"></feOffset><feFlood flood-color="#000000" flood-opacity="0.5"></feFlood><feComposite in2="afterOffset" operator="in"></feComposite><feMorphology operator="dilate" radius="1"></feMorphology><feComposite in2="SourceAlpha" operator="out"></feComposite></filter><path d="M175 241L215 241L215 281L175 281L175 241Z" id="e3nb58008J" fill="white" fill-opacity="1" filter="url(#shadow9511312)"></path></g><use xlink:href="#a1dXMJUe75" opacity="1" fill="#000000" fill-opacity="1"></use><g><use xlink:href="#a1dXMJUe75" opacity="1" fill-opacity="0" stroke="#000000" stroke-width="12" stroke-opacity="1"></use></g></g><g><g><filter id="shadow10162563" x="232" y="223" width="78" height="78" filterUnits="userSpaceOnUse" primitiveUnits="userSpaceOnUse"><feFlood></feFlood><feComposite in2="SourceAlpha" operator="in"></feComposite><feGaussianBlur stdDeviation="2.24"></feGaussianBlur><feOffset dx="2" dy="2" result="afterOffset"></feOffset><feFlood flood-color="#000000" flood-opacity="0.5"></feFlood><feComposite in2="afterOffset" operator="in"></feComposite><feMorphology operator="dilate" radius="1"></feMorphology><feComposite in2="SourceAlpha" operator="out"></feComposite></filter><path d="M250 241L290 241L290 281L250 281L250 241Z" id="d2i26z8f26" fill="white" fill-opacity="1" filter="url(#shadow10162563)"></path></g><use xlink:href="#aEKr43yKf" opacity="1" fill="#000000" fill-opacity="1"></use><g><use xlink:href="#aEKr43yKf" opacity="1" fill-opacity="0" stroke="#000000" stroke-width="12" stroke-opacity="1"></use></g></g><g><g><filter id="shadow3066619" x="307" y="223" width="78" height="78" filterUnits="userSpaceOnUse" primitiveUnits="userSpaceOnUse"><feFlood></feFlood><feComposite in2="SourceAlpha" operator="in"></feComposite><feGaussianBlur stdDeviation="2.24"></feGaussianBlur><feOffset dx="2" dy="2" result="afterOffset"></feOffset><feFlood flood-color="#000000" flood-opacity="0.5"></feFlood><feComposite in2="afterOffset" operator="in"></feComposite><feMorphology operator="dilate" radius="1"></feMorphology><feComposite in2="SourceAlpha" operator="out"></feComposite></filter><path d="M325 241L365 241L365 281L325 281L325 241Z" id="d45WlUdvaU" fill="white" fill-opacity="1" filter="url(#shadow3066619)"></path></g><use xlink:href="#ayPU96znl" opacity="1" fill="#000000" fill-opacity="1"></use><g><use xlink:href="#ayPU96znl" opacity="1" fill-opacity="0" stroke="#000000" stroke-width="12" stroke-opacity="1"></use></g></g><g><g><filter id="shadow15973082" x="382" y="223" width="78" height="78" filterUnits="userSpaceOnUse" primitiveUnits="userSpaceOnUse"><feFlood></feFlood><feComposite in2="SourceAlpha" operator="in"></feComposite><feGaussianBlur stdDeviation="2.24"></feGaussianBlur><feOffset dx="2" dy="2" result="afterOffset"></feOffset><feFlood flood-color="#000000" flood-opacity="0.5"></feFlood><feComposite in2="afterOffset" operator="in"></feComposite><feMorphology operator="dilate" radius="1"></feMorphology><feComposite in2="SourceAlpha" operator="out"></feComposite></filter><path d="M400 241L440 241L440 281L400 281L400 241Z" id="a1MG2DoRPh" fill="white" fill-opacity="1" filter="url(#shadow15973082)"></path></g><use xlink:href="#a3EZh1xIGm" opacity="1" fill="#000000" fill-opacity="1"></use><g><use xlink:href="#a3EZh1xIGm" opacity="1" fill-opacity="0" stroke="#000000" stroke-width="12" stroke-opacity="1"></use></g></g><g><g><filter id="shadow1189454" x="82" y="314" width="78" height="78" filterUnits="userSpaceOnUse" primitiveUnits="userSpaceOnUse"><feFlood></feFlood><feComposite in2="SourceAlpha" operator="in"></feComposite><feGaussianBlur stdDeviation="2.24"></feGaussianBlur><feOffset dx="2" dy="2" result="afterOffset"></feOffset><feFlood flood-color="#000000" flood-opacity="0.5"></feFlood><feComposite in2="afterOffset" operator="in"></feComposite><feMorphology operator="dilate" radius="1"></feMorphology><feComposite in2="SourceAlpha" operator="out"></feComposite></filter><path d="M100 332L140 332L140 372L100 372L100 332Z" id="dHAUkJ7u1" fill="white" fill-opacity="1" filter="url(#shadow1189454)"></path></g><use xlink:href="#d3OiRU5s7" opacity="1" fill="#000000" fill-opacity="1"></use><g><use xlink:href="#d3OiRU5s7" opacity="1" fill-opacity="0" stroke="#000000" stroke-width="12" stroke-opacity="1"></use></g></g><g><g><filter id="shadow16661051" x="157" y="314" width="78" height="78" filterUnits="userSpaceOnUse" primitiveUnits="userSpaceOnUse"><feFlood></feFlood><feComposite in2="SourceAlpha" operator="in"></feComposite><feGaussianBlur stdDeviation="2.24"></feGaussianBlur><feOffset dx="2" dy="2" result="afterOffset"></feOffset><feFlood flood-color="#000000" flood-opacity="0.5"></feFlood><feComposite in2="afterOffset" operator="in"></feComposite><feMorphology operator="dilate" radius="1"></feMorphology><feComposite in2="SourceAlpha" operator="out"></feComposite></filter><path d="M175 332L215 332L215 372L175 372L175 332Z" id="f4PBNL6Wiv" fill="white" fill-opacity="1" filter="url(#shadow16661051)"></path></g><use xlink:href="#a12FOYo9Uk" opacity="1" fill="#000000" fill-opacity="1"></use><g><use xlink:href="#a12FOYo9Uk" opacity="1" fill-opacity="0" stroke="#000000" stroke-width="12" stroke-opacity="1"></use></g></g><g><g><filter id="shadow10416989" x="232" y="314" width="78" height="78" filterUnits="userSpaceOnUse" primitiveUnits="userSpaceOnUse"><feFlood></feFlood><feComposite in2="SourceAlpha" operator="in"></feComposite><feGaussianBlur stdDeviation="2.24"></feGaussianBlur><feOffset dx="2" dy="2" result="afterOffset"></feOffset><feFlood flood-color="#000000" flood-opacity="0.5"></feFlood><feComposite in2="afterOffset" operator="in"></feComposite><feMorphology operator="dilate" radius="1"></feMorphology><feComposite in2="SourceAlpha" operator="out"></feComposite></filter><path d="M250 332L290 332L290 372L250 372L250 332Z" id="e3Fx7EZSI" fill="white" fill-opacity="1" filter="url(#shadow10416989)"></path></g><use xlink:href="#b6EDcKqKjd" opacity="1" fill="#000000" fill-opacity="1"></use><g><use xlink:href="#b6EDcKqKjd" opacity="1" fill-opacity="0" stroke="#000000" stroke-width="12" stroke-opacity="1"></use></g></g><g><g><filter id="shadow2971671" x="307" y="314" width="78" height="78" filterUnits="userSpaceOnUse" primitiveUnits="userSpaceOnUse"><feFlood></feFlood><feComposite in2="SourceAlpha" operator="in"></feComposite><feGaussianBlur stdDeviation="2.24"></feGaussianBlur><feOffset dx="2" dy="2" result="afterOffset"></feOffset><feFlood flood-color="#000000" flood-opacity="0.5"></feFlood><feComposite in2="afterOffset" operator="in"></feComposite><feMorphology operator="dilate" radius="1"></feMorphology><feComposite in2="SourceAlpha" operator="out"></feComposite></filter><path d="M325 332L365 332L365 372L325 372L325 332Z" id="bbg4HCQNR" fill="white" fill-opacity="1" filter="url(#shadow2971671)"></path></g><use xlink:href="#b3ebTAUqXN" opacity="1" fill="#000000" fill-opacity="1"></use><g><use xlink:href="#b3ebTAUqXN" opacity="1" fill-opacity="0" stroke="#000000" stroke-width="12" stroke-opacity="1"></use></g></g><g><g><filter id="shadow5913425" x="382" y="314" width="78" height="78" filterUnits="userSpaceOnUse" primitiveUnits="userSpaceOnUse"><feFlood></feFlood><feComposite in2="SourceAlpha" operator="in"></feComposite><feGaussianBlur stdDeviation="2.24"></feGaussianBlur><feOffset dx="2" dy="2" result="afterOffset"></feOffset><feFlood flood-color="#000000" flood-opacity="0.5"></feFlood><feComposite in2="afterOffset" operator="in"></feComposite><feMorphology operator="dilate" radius="1"></feMorphology><feComposite in2="SourceAlpha" operator="out"></feComposite></filter><path d="M400 332L440 332L440 372L400 372L400 332Z" id="aus2A6zwy" fill="white" fill-opacity="1" filter="url(#shadow5913425)"></path></g><use xlink:href="#gTB0aL84X" opacity="1" fill="#000000" fill-opacity="1"></use><g><use xlink:href="#gTB0aL84X" opacity="1" fill-opacity="0" stroke="#000000" stroke-width="12" stroke-opacity="1"></use></g></g></g></g></svg>