<?xml version="1.0" encoding="UTF-8" standalone="no"?>
<!DOCTYPE svg PUBLIC "-//W3C//DTD SVG 1.1//EN" "http://www.w3.org/Graphics/SVG/1.1/DTD/svg11.dtd">
<svg version="1.1" xmlns="http://www.w3.org/2000/svg" xmlns:xlink="http://www.w3.org/1999/xlink" preserveAspectRatio="xMidYMid meet" viewBox="0 0 640 640" width="640" height="640"><defs><path d="M607.19 120C614.26 120 620 125.74 620 132.81C620 210.25 620 429.76 620 507.2C620 514.27 614.26 520 607.19 520C489.75 520 150.24 520 32.8 520C25.73 520 20 514.27 20 507.2C20 429.76 20 210.25 20 132.81C20 125.74 25.73 120 32.8 120C150.24 120 489.75 120 607.19 120Z" id="b6nBR0LvA1"></path><path d="M20 120L154.39 225.1L320 354.62L620 120" id="l2lzVyEw9"></path><path d="M20 520L270.63 317.49" id="a3fp4oNa8"></path><path d="M623.77 523.15L610.03 512.04L599.87 503.82L369.37 317.49" id="c21iBm84eG"></path></defs><g><g><g><g><filter id="shadow12746020" x="4" y="104" width="634" height="434" filterUnits="userSpaceOnUse" primitiveUnits="userSpaceOnUse"><feFlood></feFlood><feComposite in2="SourceAlpha" operator="in"></feComposite><feGaussianBlur stdDeviation="2"></feGaussianBlur><feOffset dx="2" dy="2" result="afterOffset"></feOffset><feFlood flood-color="#000000" flood-opacity="0.5"></feFlood><feComposite in2="afterOffset" operator="in"></feComposite><feMorphology operator="dilate" radius="1"></feMorphology><feComposite in2="SourceAlpha" operator="out"></feComposite></filter><path d="M607.19 120C614.26 120 620 125.74 620 132.81C620 210.25 620 429.76 620 507.2C620 514.27 614.26 520 607.19 520C489.75 520 150.24 520 32.8 520C25.73 520 20 514.27 20 507.2C20 429.76 20 210.25 20 132.81C20 125.74 25.73 120 32.8 120C150.24 120 489.75 120 607.19 120Z" id="ba7mrQvTl" fill="white" fill-opacity="1" filter="url(#shadow12746020)"></path></g><use xlink:href="#b6nBR0LvA1" opacity="1" fill="#000000" fill-opacity="1"></use></g><g><g><use xlink:href="#l2lzVyEw9" opacity="1" fill-opacity="0" stroke="#f3f7fb" stroke-width="11" stroke-opacity="1"></use></g></g><g><g><use xlink:href="#a3fp4oNa8" opacity="1" fill-opacity="0" stroke="#f3f7fb" stroke-width="10" stroke-opacity="1"></use></g></g><g><g><use xlink:href="#c21iBm84eG" opacity="1" fill-opacity="0" stroke="#f3f7fb" stroke-width="10" stroke-opacity="1"></use></g></g></g></g></svg>