<?xml version="1.0" encoding="UTF-8" standalone="no"?>
<!DOCTYPE svg PUBLIC "-//W3C//DTD SVG 1.1//EN" "http://www.w3.org/Graphics/SVG/1.1/DTD/svg11.dtd">
<svg version="1.1" xmlns="http://www.w3.org/2000/svg" xmlns:xlink="http://www.w3.org/1999/xlink" preserveAspectRatio="xMidYMid meet" viewBox="0 0 640 640" width="640" height="640"><defs><path d="M190.75 280C195.86 280 200 284.14 200 289.25C200 322.4 200 412.6 200 445.75C200 450.86 195.86 455 190.75 455C168.6 455 111.4 455 89.25 455C84.14 455 80 450.86 80 445.75C80 412.6 80 322.4 80 289.25C80 284.14 84.14 280 89.25 280C111.4 280 168.6 280 190.75 280Z" id="b52tGBJmFl"></path><path d="M182.5 229.83C182.5 253.29 163.46 272.33 140 272.33C116.54 272.33 97.5 253.29 97.5 229.83C97.5 206.38 116.54 187.33 140 187.33C163.46 187.33 182.5 206.38 182.5 229.83Z" id="cNn8GwYua"></path><path d="M321.02 233.96C326.13 233.96 330.27 238.1 330.27 243.21C330.27 276.36 330.27 366.56 330.27 399.71C330.27 404.81 326.13 408.96 321.02 408.96C298.87 408.96 241.67 408.96 219.52 408.96C214.41 408.96 210.27 404.81 210.27 399.71C210.27 366.56 210.27 276.36 210.27 243.21C210.27 238.1 214.41 233.96 219.52 233.96C241.67 233.96 298.87 233.96 321.02 233.96Z" id="bjtMuCKql"></path><path d="M312.77 183.79C312.77 207.25 293.72 226.29 270.27 226.29C246.81 226.29 227.77 207.25 227.77 183.79C227.77 160.33 246.81 141.29 270.27 141.29C293.72 141.29 312.77 160.33 312.77 183.79Z" id="b2IBOCn7BB"></path><path d="M451.29 332.74C456.39 332.74 460.54 336.88 460.54 341.99C460.54 375.14 460.54 465.34 460.54 498.49C460.54 503.6 456.39 507.74 451.29 507.74C429.14 507.74 371.94 507.74 349.79 507.74C344.68 507.74 340.54 503.6 340.54 498.49C340.54 465.34 340.54 375.14 340.54 341.99C340.54 336.88 344.68 332.74 349.79 332.74C371.94 332.74 429.14 332.74 451.29 332.74Z" id="c4WH5WUatg"></path><path d="M443.04 282.57C443.04 306.03 423.99 325.07 400.54 325.07C377.08 325.07 358.04 306.03 358.04 282.57C358.04 259.12 377.08 240.07 400.54 240.07C423.99 240.07 443.04 259.12 443.04 282.57Z" id="a1co4OYoUt"></path></defs><g><g><g><g><filter id="shadow7639047" x="62" y="262" width="158" height="213" filterUnits="userSpaceOnUse" primitiveUnits="userSpaceOnUse"><feFlood></feFlood><feComposite in2="SourceAlpha" operator="in"></feComposite><feGaussianBlur stdDeviation="2.24"></feGaussianBlur><feOffset dx="2" dy="2" result="afterOffset"></feOffset><feFlood flood-color="#000000" flood-opacity="0.5"></feFlood><feComposite in2="afterOffset" operator="in"></feComposite><feMorphology operator="dilate" radius="1"></feMorphology><feComposite in2="SourceAlpha" operator="out"></feComposite></filter><path d="M190.75 280C195.86 280 200 284.14 200 289.25C200 322.4 200 412.6 200 445.75C200 450.86 195.86 455 190.75 455C168.6 455 111.4 455 89.25 455C84.14 455 80 450.86 80 445.75C80 412.6 80 322.4 80 289.25C80 284.14 84.14 280 89.25 280C111.4 280 168.6 280 190.75 280Z" id="aIdme24Ci" fill="white" fill-opacity="1" filter="url(#shadow7639047)"></path></g><use xlink:href="#b52tGBJmFl" opacity="1" fill="#000000" fill-opacity="1"></use><g><use xlink:href="#b52tGBJmFl" opacity="1" fill-opacity="0" stroke="#000000" stroke-width="1" stroke-opacity="1"></use></g></g><g><g><filter id="shadow8586282" x="79.5" y="169.33" width="123" height="123" filterUnits="userSpaceOnUse" primitiveUnits="userSpaceOnUse"><feFlood></feFlood><feComposite in2="SourceAlpha" operator="in"></feComposite><feGaussianBlur stdDeviation="2.24"></feGaussianBlur><feOffset dx="2" dy="2" result="afterOffset"></feOffset><feFlood flood-color="#050101" flood-opacity="0.5"></feFlood><feComposite in2="afterOffset" operator="in"></feComposite><feMorphology operator="dilate" radius="1"></feMorphology><feComposite in2="SourceAlpha" operator="out"></feComposite></filter><path d="M182.5 229.83C182.5 253.29 163.46 272.33 140 272.33C116.54 272.33 97.5 253.29 97.5 229.83C97.5 206.38 116.54 187.33 140 187.33C163.46 187.33 182.5 206.38 182.5 229.83Z" id="beVxm6gtt" fill="white" fill-opacity="1" filter="url(#shadow8586282)"></path></g><use xlink:href="#cNn8GwYua" opacity="1" fill="#000000" fill-opacity="1"></use><g><use xlink:href="#cNn8GwYua" opacity="1" fill-opacity="0" stroke="#000000" stroke-width="1" stroke-opacity="1"></use></g></g><g><g><filter id="shadow5013350" x="192.27" y="215.96" width="158" height="213" filterUnits="userSpaceOnUse" primitiveUnits="userSpaceOnUse"><feFlood></feFlood><feComposite in2="SourceAlpha" operator="in"></feComposite><feGaussianBlur stdDeviation="2.24"></feGaussianBlur><feOffset dx="2" dy="2" result="afterOffset"></feOffset><feFlood flood-color="#000000" flood-opacity="0.5"></feFlood><feComposite in2="afterOffset" operator="in"></feComposite><feMorphology operator="dilate" radius="1"></feMorphology><feComposite in2="SourceAlpha" operator="out"></feComposite></filter><path d="M321.02 233.96C326.13 233.96 330.27 238.1 330.27 243.21C330.27 276.36 330.27 366.56 330.27 399.71C330.27 404.81 326.13 408.96 321.02 408.96C298.87 408.96 241.67 408.96 219.52 408.96C214.41 408.96 210.27 404.81 210.27 399.71C210.27 366.56 210.27 276.36 210.27 243.21C210.27 238.1 214.41 233.96 219.52 233.96C241.67 233.96 298.87 233.96 321.02 233.96Z" id="b3NkgnH4HW" fill="white" fill-opacity="1" filter="url(#shadow5013350)"></path></g><use xlink:href="#bjtMuCKql" opacity="1" fill="#000000" fill-opacity="1"></use><g><use xlink:href="#bjtMuCKql" opacity="1" fill-opacity="0" stroke="#000000" stroke-width="1" stroke-opacity="1"></use></g></g><g><g><filter id="shadow13153118" x="209.77" y="123.29" width="123" height="123" filterUnits="userSpaceOnUse" primitiveUnits="userSpaceOnUse"><feFlood></feFlood><feComposite in2="SourceAlpha" operator="in"></feComposite><feGaussianBlur stdDeviation="2.24"></feGaussianBlur><feOffset dx="2" dy="2" result="afterOffset"></feOffset><feFlood flood-color="#050101" flood-opacity="0.5"></feFlood><feComposite in2="afterOffset" operator="in"></feComposite><feMorphology operator="dilate" radius="1"></feMorphology><feComposite in2="SourceAlpha" operator="out"></feComposite></filter><path d="M312.77 183.79C312.77 207.25 293.72 226.29 270.27 226.29C246.81 226.29 227.77 207.25 227.77 183.79C227.77 160.33 246.81 141.29 270.27 141.29C293.72 141.29 312.77 160.33 312.77 183.79Z" id="c1eTnfEE1g" fill="white" fill-opacity="1" filter="url(#shadow13153118)"></path></g><use xlink:href="#b2IBOCn7BB" opacity="1" fill="#000000" fill-opacity="1"></use><g><use xlink:href="#b2IBOCn7BB" opacity="1" fill-opacity="0" stroke="#000000" stroke-width="1" stroke-opacity="1"></use></g></g><g><g><filter id="shadow5945228" x="322.54" y="314.74" width="158" height="213" filterUnits="userSpaceOnUse" primitiveUnits="userSpaceOnUse"><feFlood></feFlood><feComposite in2="SourceAlpha" operator="in"></feComposite><feGaussianBlur stdDeviation="2.24"></feGaussianBlur><feOffset dx="2" dy="2" result="afterOffset"></feOffset><feFlood flood-color="#000000" flood-opacity="0.5"></feFlood><feComposite in2="afterOffset" operator="in"></feComposite><feMorphology operator="dilate" radius="1"></feMorphology><feComposite in2="SourceAlpha" operator="out"></feComposite></filter><path d="M451.29 332.74C456.39 332.74 460.54 336.88 460.54 341.99C460.54 375.14 460.54 465.34 460.54 498.49C460.54 503.6 456.39 507.74 451.29 507.74C429.14 507.74 371.94 507.74 349.79 507.74C344.68 507.74 340.54 503.6 340.54 498.49C340.54 465.34 340.54 375.14 340.54 341.99C340.54 336.88 344.68 332.74 349.79 332.74C371.94 332.74 429.14 332.74 451.29 332.74Z" id="dt3tox84F" fill="white" fill-opacity="1" filter="url(#shadow5945228)"></path></g><use xlink:href="#c4WH5WUatg" opacity="1" fill="#000000" fill-opacity="1"></use><g><use xlink:href="#c4WH5WUatg" opacity="1" fill-opacity="0" stroke="#000000" stroke-width="1" stroke-opacity="1"></use></g></g><g><g><filter id="shadow11803775" x="340.04" y="222.07" width="123" height="123" filterUnits="userSpaceOnUse" primitiveUnits="userSpaceOnUse"><feFlood></feFlood><feComposite in2="SourceAlpha" operator="in"></feComposite><feGaussianBlur stdDeviation="2.24"></feGaussianBlur><feOffset dx="2" dy="2" result="afterOffset"></feOffset><feFlood flood-color="#050101" flood-opacity="0.5"></feFlood><feComposite in2="afterOffset" operator="in"></feComposite><feMorphology operator="dilate" radius="1"></feMorphology><feComposite in2="SourceAlpha" operator="out"></feComposite></filter><path d="M443.04 282.57C443.04 306.03 423.99 325.07 400.54 325.07C377.08 325.07 358.04 306.03 358.04 282.57C358.04 259.12 377.08 240.07 400.54 240.07C423.99 240.07 443.04 259.12 443.04 282.57Z" id="h5DwNXK4wI" fill="white" fill-opacity="1" filter="url(#shadow11803775)"></path></g><use xlink:href="#a1co4OYoUt" opacity="1" fill="#000000" fill-opacity="1"></use><g><use xlink:href="#a1co4OYoUt" opacity="1" fill-opacity="0" stroke="#000000" stroke-width="1" stroke-opacity="1"></use></g></g></g></g></svg>