<?xml version="1.0" encoding="UTF-8" standalone="no"?>
<!DOCTYPE svg PUBLIC "-//W3C//DTD SVG 1.1//EN" "http://www.w3.org/Graphics/SVG/1.1/DTD/svg11.dtd">
<svg version="1.1" xmlns="http://www.w3.org/2000/svg" xmlns:xlink="http://www.w3.org/1999/xlink" preserveAspectRatio="xMidYMid meet" viewBox="0 0 640 640" width="640" height="640"><defs><path d="M530 215C530 278.47 478.47 330 415 330C351.53 330 300 278.47 300 215C300 151.53 351.53 100 415 100C478.47 100 530 151.53 530 215Z" id="f3DPr1PZsC"></path><path d="M470 215C470 245.36 445.36 270 415 270C384.65 270 360 245.36 360 215C360 184.65 384.65 160 415 160C445.36 160 470 184.65 470 215Z" id="eO8DEQX1r"></path><path d="M381.33 305.86C386.12 310.25 386.46 317.68 382.08 322.48C345.66 362.38 244.34 473.41 207.93 513.31C203.55 518.11 196.12 518.44 191.33 514.06C177.68 501.58 145.4 472.07 131.75 459.58C126.96 455.2 126.62 447.76 131 442.97C167.42 403.06 268.74 292.04 305.15 252.13C309.53 247.34 316.96 247 321.75 251.38C335.4 263.87 367.68 293.38 381.33 305.86Z" id="dlGwm7rcS"></path><path d="M218.9 481.23C218.9 509.45 195.54 532.36 166.78 532.36C138.01 532.36 114.66 509.45 114.66 481.23C114.66 453 138.01 430.09 166.78 430.09C195.54 430.09 218.9 453 218.9 481.23Z" id="f1PzKIj1k"></path><path d="M266.85 486.7C271.63 490.85 272.13 498.1 267.97 502.88C262.78 508.84 254.74 518.07 249.55 524.03C245.39 528.81 238.15 529.31 233.37 525.15C222.8 515.95 199.75 495.89 189.18 486.69C184.41 482.53 183.91 475.28 188.07 470.51C193.26 464.54 201.29 455.31 206.48 449.35C210.64 444.57 217.89 444.07 222.67 448.23C233.23 457.43 256.28 477.5 266.85 486.7Z" id="b1SuPmiCFu"></path><path d="M277.51 508.17C277.51 522.25 266.42 533.67 252.77 533.67C239.11 533.67 228.02 522.25 228.02 508.17C228.02 494.1 239.11 482.68 252.77 482.68C266.42 482.68 277.51 494.1 277.51 508.17Z" id="aKBXu60Ci"></path><path d="M317.85 435.7C322.63 439.85 323.13 447.1 318.97 451.88C313.78 457.84 305.74 467.07 300.55 473.03C296.39 477.81 289.15 478.31 284.37 474.15C273.8 464.95 250.75 444.89 240.18 435.69C235.41 431.53 234.91 424.28 239.07 419.51C244.26 413.54 252.29 404.31 257.48 398.35C261.64 393.57 268.89 393.07 273.67 397.23C284.23 406.43 307.28 426.5 317.85 435.7Z" id="c1daA5Fcrm"></path><path d="M328.51 457.17C328.51 471.25 317.42 482.67 303.77 482.67C290.11 482.67 279.02 471.25 279.02 457.17C279.02 443.1 290.11 431.68 303.77 431.68C317.42 431.68 328.51 443.1 328.51 457.17Z" id="fJ8H8sr2F"></path></defs><g><g><g><g><filter id="shadow10632544" x="282" y="82" width="268" height="268" filterUnits="userSpaceOnUse" primitiveUnits="userSpaceOnUse"><feFlood></feFlood><feComposite in2="SourceAlpha" operator="in"></feComposite><feGaussianBlur stdDeviation="2.24"></feGaussianBlur><feOffset dx="2" dy="2" result="afterOffset"></feOffset><feFlood flood-color="#000000" flood-opacity="0.5"></feFlood><feComposite in2="afterOffset" operator="in"></feComposite><feMorphology operator="dilate" radius="1"></feMorphology><feComposite in2="SourceAlpha" operator="out"></feComposite></filter><path d="M530 215C530 278.47 478.47 330 415 330C351.53 330 300 278.47 300 215C300 151.53 351.53 100 415 100C478.47 100 530 151.53 530 215Z" id="b6qFkFqzw" fill="white" fill-opacity="1" filter="url(#shadow10632544)"></path></g><use xlink:href="#f3DPr1PZsC" opacity="1" fill="#000000" fill-opacity="1"></use></g><g><use xlink:href="#eO8DEQX1r" opacity="1" fill="#f3f7fb" fill-opacity="1"></use><g><filter id="shadow144354" x="346" y="146" width="140" height="140" filterUnits="userSpaceOnUse" primitiveUnits="userSpaceOnUse"><feFlood></feFlood><feComposite in2="SourceAlpha" operator="out"></feComposite><feGaussianBlur stdDeviation="1.73"></feGaussianBlur><feOffset dx="2" dy="2" result="afterOffset"></feOffset><feFlood flood-color="#000000" flood-opacity="0.8"></feFlood><feComposite in2="afterOffset" operator="in"></feComposite><feMorphology operator="dilate" radius="1"></feMorphology><feComposite in2="SourceAlpha" operator="in"></feComposite></filter><path d="M470 215C470 245.36 445.36 270 415 270C384.65 270 360 245.36 360 215C360 184.65 384.65 160 415 160C445.36 160 470 184.65 470 215Z" id="aaMQqScsl" fill="white" fill-opacity="1" filter="url(#shadow144354)"></path></g></g><g><g><filter id="shadow989735" x="109.92" y="230.31" width="295.23" height="306.83" filterUnits="userSpaceOnUse" primitiveUnits="userSpaceOnUse"><feFlood></feFlood><feComposite in2="SourceAlpha" operator="in"></feComposite><feGaussianBlur stdDeviation="2.24"></feGaussianBlur><feOffset dx="2" dy="2" result="afterOffset"></feOffset><feFlood flood-color="#000000" flood-opacity="0.5"></feFlood><feComposite in2="afterOffset" operator="in"></feComposite><feMorphology operator="dilate" radius="1"></feMorphology><feComposite in2="SourceAlpha" operator="out"></feComposite></filter><path d="M381.33 305.86C386.12 310.25 386.46 317.68 382.08 322.48C345.66 362.38 244.34 473.41 207.93 513.31C203.55 518.11 196.12 518.44 191.33 514.06C177.68 501.58 145.4 472.07 131.75 459.58C126.96 455.2 126.62 447.76 131 442.97C167.42 403.06 268.74 292.04 305.15 252.13C309.53 247.34 316.96 247 321.75 251.38C335.4 263.87 367.68 293.38 381.33 305.86Z" id="g7oJMo0Ysc" fill="white" fill-opacity="1" filter="url(#shadow989735)"></path></g><use xlink:href="#dlGwm7rcS" opacity="1" fill="#000000" fill-opacity="1"></use></g><g><g><filter id="shadow9165916" x="96.66" y="412.09" width="142.24" height="140.28" filterUnits="userSpaceOnUse" primitiveUnits="userSpaceOnUse"><feFlood></feFlood><feComposite in2="SourceAlpha" operator="in"></feComposite><feGaussianBlur stdDeviation="2.24"></feGaussianBlur><feOffset dx="2" dy="2" result="afterOffset"></feOffset><feFlood flood-color="#000000" flood-opacity="0.5"></feFlood><feComposite in2="afterOffset" operator="in"></feComposite><feMorphology operator="dilate" radius="1"></feMorphology><feComposite in2="SourceAlpha" operator="out"></feComposite></filter><path d="M218.9 481.23C218.9 509.45 195.54 532.36 166.78 532.36C138.01 532.36 114.66 509.45 114.66 481.23C114.66 453 138.01 430.09 166.78 430.09C195.54 430.09 218.9 453 218.9 481.23Z" id="b2vJv7cVa9" fill="white" fill-opacity="1" filter="url(#shadow9165916)"></path></g><use xlink:href="#f1PzKIj1k" opacity="1" fill="#000000" fill-opacity="1"></use></g><g><g><filter id="shadow4727163" x="167.25" y="427.41" width="123.54" height="120.56" filterUnits="userSpaceOnUse" primitiveUnits="userSpaceOnUse"><feFlood></feFlood><feComposite in2="SourceAlpha" operator="in"></feComposite><feGaussianBlur stdDeviation="2.24"></feGaussianBlur><feOffset dx="2" dy="2" result="afterOffset"></feOffset><feFlood flood-color="#000000" flood-opacity="0.5"></feFlood><feComposite in2="afterOffset" operator="in"></feComposite><feMorphology operator="dilate" radius="1"></feMorphology><feComposite in2="SourceAlpha" operator="out"></feComposite></filter><path d="M266.85 486.7C271.63 490.85 272.13 498.1 267.97 502.88C262.78 508.84 254.74 518.07 249.55 524.03C245.39 528.81 238.15 529.31 233.37 525.15C222.8 515.95 199.75 495.89 189.18 486.69C184.41 482.53 183.91 475.28 188.07 470.51C193.26 464.54 201.29 455.31 206.48 449.35C210.64 444.57 217.89 444.07 222.67 448.23C233.23 457.43 256.28 477.5 266.85 486.7Z" id="aNV8PzmyT" fill="white" fill-opacity="1" filter="url(#shadow4727163)"></path></g><use xlink:href="#b1SuPmiCFu" opacity="1" fill="#050105" fill-opacity="1"></use><g><use xlink:href="#b1SuPmiCFu" opacity="1" fill-opacity="0" stroke="#010001" stroke-width="1" stroke-opacity="1"></use></g></g><g><g><filter id="shadow1756959" x="210.02" y="464.68" width="87.5" height="88.99" filterUnits="userSpaceOnUse" primitiveUnits="userSpaceOnUse"><feFlood></feFlood><feComposite in2="SourceAlpha" operator="in"></feComposite><feGaussianBlur stdDeviation="2.24"></feGaussianBlur><feOffset dx="2" dy="2" result="afterOffset"></feOffset><feFlood flood-color="#000000" flood-opacity="0.5"></feFlood><feComposite in2="afterOffset" operator="in"></feComposite><feMorphology operator="dilate" radius="1"></feMorphology><feComposite in2="SourceAlpha" operator="out"></feComposite></filter><path d="M277.51 508.17C277.51 522.25 266.42 533.67 252.77 533.67C239.11 533.67 228.02 522.25 228.02 508.17C228.02 494.1 239.11 482.68 252.77 482.68C266.42 482.68 277.51 494.1 277.51 508.17Z" id="cCUR0anqn" fill="white" fill-opacity="1" filter="url(#shadow1756959)"></path></g><use xlink:href="#aKBXu60Ci" opacity="1" fill="#000000" fill-opacity="1"></use><g><use xlink:href="#aKBXu60Ci" opacity="1" fill-opacity="0" stroke="#000000" stroke-width="1" stroke-opacity="1"></use></g></g><g><g><filter id="shadow12553597" x="218.25" y="376.41" width="123.54" height="120.56" filterUnits="userSpaceOnUse" primitiveUnits="userSpaceOnUse"><feFlood></feFlood><feComposite in2="SourceAlpha" operator="in"></feComposite><feGaussianBlur stdDeviation="2.24"></feGaussianBlur><feOffset dx="2" dy="2" result="afterOffset"></feOffset><feFlood flood-color="#000000" flood-opacity="0.5"></feFlood><feComposite in2="afterOffset" operator="in"></feComposite><feMorphology operator="dilate" radius="1"></feMorphology><feComposite in2="SourceAlpha" operator="out"></feComposite></filter><path d="M317.85 435.7C322.63 439.85 323.13 447.1 318.97 451.88C313.78 457.84 305.74 467.07 300.55 473.03C296.39 477.81 289.15 478.31 284.37 474.15C273.8 464.95 250.75 444.89 240.18 435.69C235.41 431.53 234.91 424.28 239.07 419.51C244.26 413.54 252.29 404.31 257.48 398.35C261.64 393.57 268.89 393.07 273.67 397.23C284.23 406.43 307.28 426.5 317.85 435.7Z" id="c3KYBpJ7S" fill="white" fill-opacity="1" filter="url(#shadow12553597)"></path></g><use xlink:href="#c1daA5Fcrm" opacity="1" fill="#050105" fill-opacity="1"></use><g><use xlink:href="#c1daA5Fcrm" opacity="1" fill-opacity="0" stroke="#010001" stroke-width="1" stroke-opacity="1"></use></g></g><g><g><filter id="shadow1743333" x="261.02" y="413.68" width="87.5" height="88.99" filterUnits="userSpaceOnUse" primitiveUnits="userSpaceOnUse"><feFlood></feFlood><feComposite in2="SourceAlpha" operator="in"></feComposite><feGaussianBlur stdDeviation="2.24"></feGaussianBlur><feOffset dx="2" dy="2" result="afterOffset"></feOffset><feFlood flood-color="#000000" flood-opacity="0.5"></feFlood><feComposite in2="afterOffset" operator="in"></feComposite><feMorphology operator="dilate" radius="1"></feMorphology><feComposite in2="SourceAlpha" operator="out"></feComposite></filter><path d="M328.51 457.17C328.51 471.25 317.42 482.67 303.77 482.67C290.11 482.67 279.02 471.25 279.02 457.17C279.02 443.1 290.11 431.68 303.77 431.68C317.42 431.68 328.51 443.1 328.51 457.17Z" id="b2atfbC4pd" fill="white" fill-opacity="1" filter="url(#shadow1743333)"></path></g><use xlink:href="#fJ8H8sr2F" opacity="1" fill="#000000" fill-opacity="1"></use><g><use xlink:href="#fJ8H8sr2F" opacity="1" fill-opacity="0" stroke="#000000" stroke-width="1" stroke-opacity="1"></use></g></g></g></g></svg>