<?xml version="1.0" encoding="UTF-8" standalone="no"?>
<!DOCTYPE svg PUBLIC "-//W3C//DTD SVG 1.1//EN" "http://www.w3.org/Graphics/SVG/1.1/DTD/svg11.dtd">
<svg version="1.1" xmlns="http://www.w3.org/2000/svg" xmlns:xlink="http://www.w3.org/1999/xlink" preserveAspectRatio="xMidYMid meet" viewBox="0 0 640 640" width="640" height="640"><defs><path d="M500 275C500 399.18 399.18 500 275 500C150.82 500 50 399.18 50 275C50 150.82 150.82 50 275 50C399.18 50 500 150.82 500 275Z" id="c3DEJSHarC"></path><path d="" id="bBcmnjkuj"></path><path d="M330 138.13C330 168.48 305.35 193.13 275 193.13C244.64 193.13 220 168.48 220 138.13C220 107.77 244.64 83.13 275 83.13C305.35 83.13 330 107.77 330 138.13Z" id="cL3lAvWH1"></path><path d="M375.63 312.1C375.63 370.48 330.54 417.87 275 417.87C219.46 417.87 174.37 370.48 174.37 312.1C174.37 253.72 219.46 206.32 275 206.32C330.54 206.32 375.63 253.72 375.63 312.1Z" id="a26F1eTW"></path><path d="M368.02 300.73C372.22 300.73 375.63 304.14 375.63 308.35C375.63 334.94 375.63 407.1 375.63 433.69C375.63 437.89 372.22 441.3 368.02 441.3C329.29 441.3 220.71 441.3 181.98 441.3C177.78 441.3 174.37 437.89 174.37 433.69C174.37 407.1 174.37 334.94 174.37 308.35C174.37 304.14 177.78 300.73 181.98 300.73C220.71 300.73 329.29 300.73 368.02 300.73Z" id="goIqC0QTb"></path><path d="M375.63 433.91C375.63 453.36 330.54 469.14 275 469.14C219.46 469.14 174.37 453.36 174.37 433.91C174.37 414.47 219.46 398.68 275 398.68C330.54 398.68 375.63 414.47 375.63 433.91Z" id="b184oZgdEJ"></path></defs><g><g><g><g><filter id="shadow3619265" x="19" y="19" width="526" height="526" filterUnits="userSpaceOnUse" primitiveUnits="userSpaceOnUse"><feFlood></feFlood><feComposite in2="SourceAlpha" operator="in"></feComposite><feGaussianBlur stdDeviation="2.24"></feGaussianBlur><feOffset dx="14" dy="14" result="afterOffset"></feOffset><feFlood flood-color="#000000" flood-opacity="0.5"></feFlood><feComposite in2="afterOffset" operator="in"></feComposite><feMorphology operator="dilate" radius="2"></feMorphology><feComposite in2="SourceAlpha" operator="out"></feComposite></filter><path d="M500 275C500 399.18 399.18 500 275 500C150.82 500 50 399.18 50 275C50 150.82 150.82 50 275 50C399.18 50 500 150.82 500 275Z" id="h1giE7zDFb" fill="white" fill-opacity="1" filter="url(#shadow3619265)"></path></g><g><use xlink:href="#c3DEJSHarC" opacity="1" fill-opacity="0" stroke="#020102" stroke-width="30" stroke-opacity="1"></use></g><g><filter id="shadow10357008" x="15" y="15" width="536" height="530" filterUnits="userSpaceOnUse" primitiveUnits="userSpaceOnUse"><feFlood></feFlood><feComposite in2="SourceAlpha" operator="out"></feComposite><feGaussianBlur stdDeviation="2.24"></feGaussianBlur><feOffset dx="16" dy="10" result="afterOffset"></feOffset><feFlood flood-color="#070303" flood-opacity="0.8"></feFlood><feComposite in2="afterOffset" operator="in"></feComposite><feMorphology operator="dilate" radius="4"></feMorphology><feComposite in2="SourceAlpha" operator="in"></feComposite></filter><path d="M500 275C500 399.18 399.18 500 275 500C150.82 500 50 399.18 50 275C50 150.82 150.82 50 275 50C399.18 50 500 150.82 500 275Z" id="b2UVpCRMR" fill="white" fill-opacity="1" filter="url(#shadow10357008)"></path></g></g><g><g><use xlink:href="#bBcmnjkuj" opacity="1" fill-opacity="0" stroke="#2e1128" stroke-width="1" stroke-opacity="1"></use></g></g><g><g><filter id="shadow11565450" x="202" y="65.13" width="148" height="148" filterUnits="userSpaceOnUse" primitiveUnits="userSpaceOnUse"><feFlood></feFlood><feComposite in2="SourceAlpha" operator="in"></feComposite><feGaussianBlur stdDeviation="2.24"></feGaussianBlur><feOffset dx="2" dy="2" result="afterOffset"></feOffset><feFlood flood-color="#000000" flood-opacity="0.5"></feFlood><feComposite in2="afterOffset" operator="in"></feComposite><feMorphology operator="dilate" radius="1"></feMorphology><feComposite in2="SourceAlpha" operator="out"></feComposite></filter><path d="M330 138.13C330 168.48 305.35 193.13 275 193.13C244.64 193.13 220 168.48 220 138.13C220 107.77 244.64 83.13 275 83.13C305.35 83.13 330 107.77 330 138.13Z" id="cpdcsfYPz" fill="white" fill-opacity="1" filter="url(#shadow11565450)"></path></g><use xlink:href="#cL3lAvWH1" opacity="1" fill="#080c11" fill-opacity="1"></use></g><g><g><filter id="shadow601567" x="156.37" y="188.32" width="239.26" height="249.55" filterUnits="userSpaceOnUse" primitiveUnits="userSpaceOnUse"><feFlood></feFlood><feComposite in2="SourceAlpha" operator="in"></feComposite><feGaussianBlur stdDeviation="2.24"></feGaussianBlur><feOffset dx="2" dy="2" result="afterOffset"></feOffset><feFlood flood-color="#000000" flood-opacity="0.5"></feFlood><feComposite in2="afterOffset" operator="in"></feComposite><feMorphology operator="dilate" radius="1"></feMorphology><feComposite in2="SourceAlpha" operator="out"></feComposite></filter><path d="M375.63 312.1C375.63 370.48 330.54 417.87 275 417.87C219.46 417.87 174.37 370.48 174.37 312.1C174.37 253.72 219.46 206.32 275 206.32C330.54 206.32 375.63 253.72 375.63 312.1Z" id="a1ySqTWw7X" fill="white" fill-opacity="1" filter="url(#shadow601567)"></path></g><use xlink:href="#a26F1eTW" opacity="1" fill="#000000" fill-opacity="1"></use></g><g><g><filter id="shadow9388875" x="156.37" y="282.73" width="239.26" height="178.57" filterUnits="userSpaceOnUse" primitiveUnits="userSpaceOnUse"><feFlood></feFlood><feComposite in2="SourceAlpha" operator="in"></feComposite><feGaussianBlur stdDeviation="2.24"></feGaussianBlur><feOffset dx="2" dy="2" result="afterOffset"></feOffset><feFlood flood-color="#000000" flood-opacity="0.5"></feFlood><feComposite in2="afterOffset" operator="in"></feComposite><feMorphology operator="dilate" radius="1"></feMorphology><feComposite in2="SourceAlpha" operator="out"></feComposite></filter><path d="M368.02 300.73C372.22 300.73 375.63 304.14 375.63 308.35C375.63 334.94 375.63 407.1 375.63 433.69C375.63 437.89 372.22 441.3 368.02 441.3C329.29 441.3 220.71 441.3 181.98 441.3C177.78 441.3 174.37 437.89 174.37 433.69C174.37 407.1 174.37 334.94 174.37 308.35C174.37 304.14 177.78 300.73 181.98 300.73C220.71 300.73 329.29 300.73 368.02 300.73Z" id="d20qoEYvd4" fill="white" fill-opacity="1" filter="url(#shadow9388875)"></path></g><use xlink:href="#goIqC0QTb" opacity="1" fill="#000000" fill-opacity="1"></use></g><g><g><filter id="shadow1974967" x="156.37" y="380.68" width="239.26" height="108.46" filterUnits="userSpaceOnUse" primitiveUnits="userSpaceOnUse"><feFlood></feFlood><feComposite in2="SourceAlpha" operator="in"></feComposite><feGaussianBlur stdDeviation="2.24"></feGaussianBlur><feOffset dx="2" dy="2" result="afterOffset"></feOffset><feFlood flood-color="#000000" flood-opacity="0.5"></feFlood><feComposite in2="afterOffset" operator="in"></feComposite><feMorphology operator="dilate" radius="1"></feMorphology><feComposite in2="SourceAlpha" operator="out"></feComposite></filter><path d="M375.63 433.91C375.63 453.36 330.54 469.14 275 469.14C219.46 469.14 174.37 453.36 174.37 433.91C174.37 414.47 219.46 398.68 275 398.68C330.54 398.68 375.63 414.47 375.63 433.91Z" id="b3qAQPgS86" fill="white" fill-opacity="1" filter="url(#shadow1974967)"></path></g><use xlink:href="#b184oZgdEJ" opacity="1" fill="#000000" fill-opacity="1"></use></g></g></g></svg>