<?xml version="1.0" encoding="UTF-8" standalone="no"?>
<!DOCTYPE svg PUBLIC "-//W3C//DTD SVG 1.1//EN" "http://www.w3.org/Graphics/SVG/1.1/DTD/svg11.dtd">
<svg version="1.1" xmlns="http://www.w3.org/2000/svg" xmlns:xlink="http://www.w3.org/1999/xlink" preserveAspectRatio="xMidYMid meet" viewBox="0 0 640 640" width="640" height="640"><defs><path d="M300 200C300 255.19 255.19 300 200 300C144.8 300 100 255.19 100 200C100 144.8 144.8 100 200 100C255.19 100 300 144.8 300 200Z" id="iDmy9eJT3"></path><path d="M246.52 287.2L283.53 249.78L403.61 368.53L366.6 405.96L246.52 287.2Z" id="c2Wl02lZwl"></path><path d="M413.1 389.16C413.1 403.68 401.3 415.47 386.78 415.47C372.26 415.47 360.46 403.68 360.46 389.16C360.46 374.63 372.26 362.84 386.78 362.84C401.3 362.84 413.1 374.63 413.1 389.16Z" id="g6qR3D3cw"></path></defs><g><g><g><g><filter id="shadow12219434" x="70" y="70" width="270" height="270" filterUnits="userSpaceOnUse" primitiveUnits="userSpaceOnUse"><feFlood></feFlood><feComposite in2="SourceAlpha" operator="in"></feComposite><feGaussianBlur stdDeviation="2.24"></feGaussianBlur><feOffset dx="10" dy="10" result="afterOffset"></feOffset><feFlood flood-color="#000000" flood-opacity="0.5"></feFlood><feComposite in2="afterOffset" operator="in"></feComposite><feMorphology operator="dilate" radius="5"></feMorphology><feComposite in2="SourceAlpha" operator="out"></feComposite></filter><path d="M300 200C300 255.19 255.19 300 200 300C144.8 300 100 255.19 100 200C100 144.8 144.8 100 200 100C255.19 100 300 144.8 300 200Z" id="d1oEaJSrcV" fill="white" fill-opacity="1" filter="url(#shadow12219434)"></path></g><g><use xlink:href="#iDmy9eJT3" opacity="1" fill-opacity="0" stroke="#000000" stroke-width="26" stroke-opacity="1"></use></g><g><filter id="shadow8363531" x="72" y="72" width="268" height="268" filterUnits="userSpaceOnUse" primitiveUnits="userSpaceOnUse"><feFlood></feFlood><feComposite in2="SourceAlpha" operator="out"></feComposite><feGaussianBlur stdDeviation="2.24"></feGaussianBlur><feOffset dx="12" dy="12" result="afterOffset"></feOffset><feFlood flood-color="#000000" flood-opacity="0.8"></feFlood><feComposite in2="afterOffset" operator="in"></feComposite><feMorphology operator="dilate" radius="1"></feMorphology><feComposite in2="SourceAlpha" operator="in"></feComposite></filter><path d="M300 200C300 255.19 255.19 300 200 300C144.8 300 100 255.19 100 200C100 144.8 144.8 100 200 100C255.19 100 300 144.8 300 200Z" id="aOarY5Zcr" fill="white" fill-opacity="1" filter="url(#shadow8363531)"></path></g></g><g><g><filter id="shadow7993946" x="228.52" y="231.78" width="195.09" height="194.18" filterUnits="userSpaceOnUse" primitiveUnits="userSpaceOnUse"><feFlood></feFlood><feComposite in2="SourceAlpha" operator="in"></feComposite><feGaussianBlur stdDeviation="2.24"></feGaussianBlur><feOffset dx="2" dy="2" result="afterOffset"></feOffset><feFlood flood-color="#000000" flood-opacity="0.5"></feFlood><feComposite in2="afterOffset" operator="in"></feComposite><feMorphology operator="dilate" radius="1"></feMorphology><feComposite in2="SourceAlpha" operator="out"></feComposite></filter><path d="M246.52 287.2L283.53 249.78L403.61 368.53L366.6 405.96L246.52 287.2Z" id="a19mfzPSTk" fill="white" fill-opacity="1" filter="url(#shadow7993946)"></path></g><use xlink:href="#c2Wl02lZwl" opacity="1" fill="#000000" fill-opacity="1"></use></g><g><g><filter id="shadow12726117" x="342.46" y="344.84" width="90.63" height="90.63" filterUnits="userSpaceOnUse" primitiveUnits="userSpaceOnUse"><feFlood></feFlood><feComposite in2="SourceAlpha" operator="in"></feComposite><feGaussianBlur stdDeviation="2.24"></feGaussianBlur><feOffset dx="2" dy="2" result="afterOffset"></feOffset><feFlood flood-color="#000000" flood-opacity="0.5"></feFlood><feComposite in2="afterOffset" operator="in"></feComposite><feMorphology operator="dilate" radius="1"></feMorphology><feComposite in2="SourceAlpha" operator="out"></feComposite></filter><path d="M413.1 389.16C413.1 403.68 401.3 415.47 386.78 415.47C372.26 415.47 360.46 403.68 360.46 389.16C360.46 374.63 372.26 362.84 386.78 362.84C401.3 362.84 413.1 374.63 413.1 389.16Z" id="f597WXCfa" fill="white" fill-opacity="1" filter="url(#shadow12726117)"></path></g><use xlink:href="#g6qR3D3cw" opacity="1" fill="#000000" fill-opacity="1"></use></g></g></g></svg>