<?xml version="1.0" encoding="UTF-8" standalone="no"?>
<!DOCTYPE svg PUBLIC "-//W3C//DTD SVG 1.1//EN" "http://www.w3.org/Graphics/SVG/1.1/DTD/svg11.dtd">
<svg version="1.1" xmlns="http://www.w3.org/2000/svg" xmlns:xlink="http://www.w3.org/1999/xlink" preserveAspectRatio="xMidYMid meet" viewBox="0 0 640 640" width="640" height="640"><defs><path d="M424.17 139.3L424.33 139.27L424.49 139.24L424.65 139.23L424.81 139.22L424.96 139.23L425.11 139.24L425.27 139.26L425.42 139.29L425.57 139.32L425.71 139.37L425.86 139.42L426.01 139.48L426.15 139.55L426.29 139.62L426.44 139.7L426.58 139.79L426.72 139.89L426.86 139.99L427 140.1L427.14 140.21L427.28 140.33L427.41 140.45L427.55 140.58L427.69 140.71L427.83 140.85L427.96 141L428.1 141.14L428.24 141.3L428.37 141.45L428.51 141.61L428.65 141.77L428.79 141.94L428.92 142.11L429.06 142.29L429.2 142.46L429.34 142.64L429.48 142.82L429.62 143L437.67 154.8L438.88 154.76L441.58 154.77L444.28 154.88L446.96 155.1L449.62 155.43L449.84 155.46L459.14 144.58L459.3 144.41L459.46 144.25L459.62 144.09L459.77 143.93L459.93 143.77L460.08 143.62L460.24 143.46L460.39 143.32L460.55 143.17L460.7 143.03L460.85 142.9L461 142.76L461.16 142.64L461.31 142.51L461.46 142.4L461.61 142.28L461.76 142.17L461.91 142.07L462.06 141.98L462.21 141.88L462.36 141.8L462.51 141.72L462.66 141.65L462.81 141.58L462.96 141.53L463.11 141.47L463.26 141.43L463.42 141.39L463.57 141.37L463.72 141.35L463.87 141.33L464.03 141.33L464.18 141.33L464.33 141.35L464.49 141.37L464.64 141.4L464.8 141.44L464.96 141.49L465.11 141.56L465.27 141.63L488.27 152.67L488.43 152.75L488.58 152.84L488.72 152.93L488.85 153.03L488.97 153.13L489.09 153.24L489.2 153.35L489.31 153.47L489.41 153.59L489.5 153.72L489.58 153.86L489.66 154L489.74 154.14L489.8 154.29L489.86 154.44L489.92 154.6L489.97 154.76L490.01 154.93L490.05 155.09L490.08 155.27L490.11 155.44L490.13 155.62L490.15 155.81L490.16 155.99L490.17 156.18L490.17 156.38L490.17 156.57L490.17 156.77L490.16 156.97L490.15 157.17L490.13 157.38L490.11 157.58L490.08 157.79L490.05 158.01L490.02 158.22L489.99 158.43L489.95 158.65L489.91 158.87L489.86 159.09L489.81 159.31L487.17 173.36L487.4 173.57L489.32 175.44L491.16 177.4L492.94 179.43L494.64 181.54L495.36 182.51L509.59 181.4L509.81 181.38L510.04 181.36L510.26 181.34L510.48 181.33L510.69 181.31L510.91 181.31L511.12 181.3L511.33 181.3L511.54 181.3L511.75 181.3L511.95 181.31L512.15 181.32L512.35 181.34L512.54 181.36L512.73 181.39L512.92 181.41L513.1 181.45L513.28 181.49L513.46 181.53L513.63 181.57L513.8 181.63L513.96 181.68L514.12 181.74L514.28 181.81L514.43 181.88L514.57 181.96L514.71 182.04L514.85 182.13L514.98 182.22L515.1 182.32L515.22 182.43L515.33 182.54L515.44 182.65L515.54 182.78L515.64 182.91L515.73 183.04L515.81 183.19L515.88 183.34L515.95 183.49L516.02 183.65L524.49 207.73L524.55 207.9L524.59 208.06L524.62 208.22L524.65 208.38L524.66 208.54L524.67 208.7L524.66 208.85L524.65 209L524.63 209.16L524.6 209.31L524.57 209.46L524.52 209.6L524.47 209.75L524.41 209.9L524.34 210.04L524.27 210.18L524.19 210.33L524.1 210.47L524 210.61L523.9 210.75L523.8 210.89L523.68 211.03L523.57 211.17L523.44 211.3L523.31 211.44L523.18 211.58L523.04 211.72L522.9 211.85L522.75 211.99L522.6 212.13L522.44 212.26L522.28 212.4L522.12 212.54L521.95 212.68L521.78 212.81L521.61 212.95L521.43 213.09L521.26 213.23L521.08 213.37L520.89 213.51L509.11 221.55L509.15 222.76L509.15 225.47L509.04 228.16L508.82 230.84L508.5 233.51L508.45 233.78L519.3 243.07L519.47 243.21L519.65 243.35L519.81 243.49L519.98 243.64L520.14 243.78L520.3 243.93L520.46 244.08L520.61 244.22L520.75 244.37L520.9 244.52L521.03 244.67L521.17 244.82L521.29 244.97L521.42 245.13L521.53 245.28L521.65 245.43L521.75 245.58L521.85 245.74L521.95 245.89L522.04 246.05L522.12 246.2L522.2 246.36L522.27 246.51L522.33 246.67L522.39 246.83L522.43 246.98L522.47 247.14L522.51 247.3L522.53 247.46L522.55 247.62L522.56 247.77L522.56 247.93L522.56 248.09L522.54 248.25L522.52 248.41L522.48 248.57L522.44 248.73L522.39 248.88L522.33 249.04L522.26 249.2L511.24 272.21L511.16 272.36L511.08 272.51L510.99 272.65L510.89 272.78L510.79 272.9L510.68 273.01L510.57 273.12L510.45 273.22L510.33 273.31L510.21 273.4L510.08 273.48L509.94 273.55L509.8 273.62L509.65 273.68L509.5 273.73L509.35 273.78L509.19 273.83L509.03 273.86L508.86 273.9L508.69 273.92L508.52 273.95L508.34 273.97L508.16 273.98L507.97 273.99L507.78 274L507.59 274L507.4 274L507.2 273.99L507 273.99L506.79 273.97L506.59 273.96L506.38 273.94L506.16 273.93L505.95 273.9L505.73 273.88L505.51 273.86L505.29 273.83L505.07 273.8L504.84 273.77L504.61 273.74L490.59 271.09L490.4 271.29L488.53 273.21L486.58 275.06L484.55 276.84L482.45 278.54L481.48 279.26L482.6 293.5L482.6 293.73L482.61 293.95L482.61 294.18L482.61 294.4L482.61 294.63L482.61 294.84L482.61 295.06L482.6 295.27L482.6 295.48L482.59 295.69L482.58 295.9L482.56 296.1L482.55 296.29L482.53 296.49L482.5 296.68L482.48 296.87L482.45 297.05L482.41 297.23L482.38 297.4L482.33 297.57L482.29 297.74L482.24 297.9L482.18 298.06L482.12 298.21L482.06 298.36L481.99 298.5L481.91 298.64L481.83 298.77L481.74 298.9L481.65 299.02L481.55 299.14L481.44 299.25L481.33 299.36L481.21 299.46L481.09 299.55L480.96 299.64L480.82 299.72L480.67 299.79L480.52 299.86L480.35 299.92L456.3 308.38L456.13 308.43L455.97 308.48L455.81 308.51L455.64 308.54L455.48 308.55L455.32 308.56L455.16 308.56L455 308.55L454.85 308.53L454.69 308.5L454.53 308.47L454.38 308.43L454.23 308.37L454.08 308.32L453.93 308.25L453.78 308.18L453.63 308.1L453.48 308.01L453.33 307.92L453.19 307.82L453.04 307.72L452.9 307.61L452.76 307.49L452.62 307.37L452.48 307.24L452.34 307.1L452.2 306.97L452.07 306.82L451.93 306.67L451.8 306.52L451.66 306.36L451.53 306.2L451.4 306.03L451.27 305.86L451.14 305.69L451.02 305.51L450.89 305.33L450.77 305.15L450.65 304.96L450.52 304.77L442.47 292.97L441.27 293.02L438.56 293.01L435.87 292.89L433.19 292.67L430.53 292.35L430.2 292.3L420.97 303.1L420.82 303.28L420.68 303.45L420.54 303.62L420.4 303.78L420.25 303.95L420.1 304.1L419.96 304.26L419.81 304.41L419.66 304.56L419.51 304.7L419.36 304.84L419.21 304.97L419.06 305.1L418.91 305.22L418.76 305.34L418.61 305.45L418.45 305.56L418.3 305.66L418.15 305.75L417.99 305.84L417.84 305.92L417.68 306L417.52 306.07L417.37 306.13L417.21 306.19L417.05 306.23L416.9 306.28L416.74 306.31L416.58 306.33L416.42 306.35L416.27 306.36L416.11 306.36L415.95 306.36L415.79 306.34L415.63 306.32L415.47 306.28L415.31 306.24L415.16 306.19L415 306.13L414.84 306.05L391.83 295.01L391.68 294.93L391.53 294.85L391.4 294.75L391.27 294.66L391.14 294.56L391.03 294.45L390.92 294.34L390.82 294.22L390.73 294.1L390.64 293.97L390.57 293.84L390.49 293.71L390.43 293.57L390.37 293.42L390.31 293.27L390.26 293.12L390.22 292.96L390.18 292.79L390.15 292.63L390.12 292.46L390.1 292.28L390.08 292.11L390.06 291.92L390.05 291.74L390.05 291.55L390.04 291.36L390.04 291.16L390.05 290.96L390.06 290.76L390.07 290.56L390.08 290.35L390.1 290.14L390.11 289.93L390.14 289.71L390.16 289.5L390.18 289.28L390.21 289.05L390.24 288.83L390.27 288.6L390.3 288.38L392.93 274.38L392.75 274.21L390.83 272.33L388.98 270.38L387.2 268.35L385.5 266.24L384.78 265.27L370.55 266.37L370.32 266.38L370.09 266.38L369.87 266.39L369.64 266.39L369.42 266.39L369.2 266.39L368.99 266.39L368.77 266.38L368.56 266.37L368.36 266.36L368.15 266.35L367.95 266.34L367.75 266.32L367.56 266.3L367.37 266.28L367.18 266.25L367 266.22L366.82 266.19L366.65 266.15L366.48 266.11L366.31 266.06L366.15 266.01L365.99 265.95L365.84 265.89L365.69 265.83L365.55 265.76L365.41 265.68L365.28 265.6L365.15 265.51L365.03 265.42L364.91 265.32L364.8 265.21L364.69 265.1L364.59 264.98L364.5 264.86L364.41 264.73L364.33 264.59L364.26 264.44L364.19 264.29L364.13 264.12L355.65 240.04L355.6 239.88L355.55 239.71L355.52 239.55L355.49 239.39L355.48 239.23L355.47 239.07L355.47 238.91L355.48 238.75L355.5 238.59L355.53 238.43L355.56 238.28L355.6 238.13L355.65 237.97L355.71 237.82L355.78 237.67L355.85 237.52L355.93 237.37L356.01 237.22L356.11 237.08L356.21 236.93L356.31 236.79L356.42 236.64L356.54 236.5L356.66 236.36L356.79 236.22L356.92 236.08L357.06 235.95L357.21 235.81L357.35 235.67L357.51 235.54L357.66 235.41L357.83 235.28L357.99 235.15L358.16 235.02L358.33 234.89L358.51 234.76L358.69 234.64L358.87 234.51L359.06 234.39L359.25 234.27L371.04 226.22L370.99 225.02L370.99 222.31L371.11 219.61L371.32 216.93L371.65 214.27L371.69 214L360.84 204.71L360.68 204.55L360.51 204.39L360.35 204.24L360.19 204.08L360.03 203.92L359.88 203.77L359.73 203.61L359.58 203.46L359.44 203.3L359.3 203.15L359.16 203L359.03 202.85L358.9 202.69L358.78 202.54L358.66 202.39L358.55 202.24L358.44 202.09L358.34 201.94L358.24 201.79L358.15 201.64L358.06 201.49L357.98 201.34L357.91 201.19L357.85 201.04L357.79 200.88L357.74 200.73L357.69 200.58L357.66 200.43L357.63 200.28L357.61 200.13L357.6 199.97L357.59 199.82L357.6 199.67L357.61 199.51L357.63 199.36L357.66 199.2L357.7 199.05L357.76 198.89L357.82 198.73L357.89 198.57L368.9 175.57L368.98 175.41L369.07 175.27L369.16 175.13L369.26 174.99L369.36 174.87L369.47 174.75L369.58 174.64L369.7 174.53L369.82 174.43L369.95 174.34L370.09 174.26L370.23 174.18L370.37 174.11L370.52 174.04L370.67 173.98L370.83 173.92L370.99 173.88L371.15 173.83L371.32 173.79L371.49 173.76L371.67 173.73L371.85 173.71L372.03 173.69L372.22 173.68L372.41 173.67L372.6 173.67L372.8 173.67L372.99 173.68L373.2 173.69L373.4 173.7L373.6 173.72L373.81 173.74L374.02 173.76L374.23 173.79L374.44 173.82L374.66 173.86L374.87 173.9L375.09 173.94L375.31 173.99L375.53 174.03L389.55 176.69L389.74 176.48L391.61 174.56L393.56 172.72L395.59 170.94L397.69 169.24L398.66 168.52L397.55 154.28L397.52 154.06L397.5 153.83L397.48 153.61L397.47 153.39L397.46 153.18L397.45 152.96L397.44 152.75L397.44 152.54L397.44 152.33L397.45 152.12L397.45 151.92L397.47 151.72L397.48 151.52L397.5 151.33L397.53 151.14L397.55 150.95L397.59 150.77L397.62 150.59L397.67 150.41L397.71 150.24L397.76 150.07L397.82 149.91L397.88 149.75L397.95 149.59L398.02 149.44L398.1 149.3L398.18 149.16L398.27 149.02L398.36 148.89L398.46 148.77L398.56 148.65L398.67 148.53L398.79 148.43L398.91 148.33L399.04 148.23L399.18 148.14L399.32 148.06L399.47 147.99L399.63 147.92L399.79 147.85L423.84 139.4L424.01 139.34L424.17 139.3ZM424.87 189.9L423.51 190.54L422.18 191.23L420.89 191.97L419.64 192.76L418.43 193.59L417.25 194.46L416.12 195.38L415.03 196.33L413.98 197.33L412.97 198.36L412 199.43L411.08 200.53L410.21 201.67L409.38 202.83L408.59 204.03L407.86 205.25L407.17 206.5L406.53 207.78L405.93 209.08L405.39 210.4L404.9 211.74L404.46 213.11L404.07 214.48L403.74 215.88L403.45 217.29L403.23 218.71L403.05 220.14L402.94 221.59L402.88 223.04L402.87 224.5L402.93 225.96L403.04 227.43L403.21 228.9L403.45 230.37L403.74 231.84L404.09 233.3L404.51 234.77L404.99 236.22L405.53 237.66L406.12 239.06L406.76 240.43L407.46 241.76L408.2 243.05L408.98 244.3L409.81 245.52L410.69 246.69L411.6 247.83L412.56 248.92L413.56 249.97L414.59 250.98L415.66 251.95L416.76 252.87L417.89 253.75L419.06 254.58L420.26 255.37L421.48 256.11L422.73 256.8L424.01 257.44L425.31 258.03L426.63 258.58L427.97 259.07L429.33 259.51L430.71 259.9L432.1 260.24L433.51 260.52L434.93 260.75L436.36 260.93L437.81 261.05L439.26 261.11L440.71 261.11L442.18 261.06L443.64 260.95L445.11 260.78L446.58 260.54L448.05 260.25L449.51 259.9L450.98 259.48L452.43 259L453.87 258.47L455.27 257.88L456.63 257.23L457.96 256.54L459.25 255.8L460.5 255.02L461.72 254.19L462.89 253.31L464.02 252.4L465.12 251.44L466.17 250.45L467.17 249.41L468.14 248.35L469.06 247.24L469.93 246.11L470.77 244.94L471.55 243.75L472.29 242.52L472.98 241.27L473.62 240L474.21 238.7L474.75 237.37L475.24 236.03L475.68 234.67L476.07 233.29L476.41 231.9L476.69 230.49L476.92 229.07L477.09 227.63L477.21 226.19L477.27 224.74L477.27 223.28L477.22 221.82L477.1 220.35L476.93 218.88L476.7 217.41L476.4 215.94L476.05 214.47L475.63 213.01L475.15 211.55L474.61 210.12L474.02 208.71L473.38 207.35L472.69 206.02L471.95 204.73L471.16 203.47L470.33 202.26L469.46 201.08L468.54 199.95L467.58 198.85L466.59 197.8L465.55 196.79L464.49 195.83L463.38 194.9L462.25 194.03L461.08 193.19L459.89 192.41L458.66 191.67L457.41 190.98L456.14 190.34L454.84 189.74L453.52 189.2L452.17 188.71L450.81 188.26L449.43 187.87L448.04 187.54L446.63 187.25L445.21 187.02L443.78 186.85L442.34 186.73L440.89 186.67L439.43 186.66L437.97 186.72L436.5 186.83L435.03 187L433.56 187.23L432.09 187.52L430.63 187.88L429.17 188.29L427.71 188.77L426.27 189.31L424.87 189.9Z" id="f2DFf66Bop"></path><path d="M275.93 171.58L276.17 171.61L276.41 171.65L276.63 171.71L276.85 171.78L277.06 171.86L277.27 171.95L277.47 172.05L277.67 172.16L277.85 172.29L278.04 172.42L278.21 172.57L278.39 172.72L278.55 172.88L278.72 173.06L278.88 173.24L279.03 173.43L279.18 173.63L279.32 173.84L279.47 174.06L279.6 174.28L279.74 174.51L279.87 174.75L280 175L280.12 175.25L280.25 175.51L280.37 175.77L280.48 176.05L280.6 176.32L280.71 176.61L280.82 176.89L280.93 177.19L281.04 177.49L281.15 177.79L281.26 178.1L281.36 178.41L281.47 178.72L281.58 179.04L281.68 179.36L287.09 199.64L288.78 200.17L292.53 201.5L296.21 202.97L299.82 204.58L303.35 206.32L303.65 206.48L321.87 195.93L322.17 195.78L322.47 195.63L322.77 195.48L323.06 195.34L323.35 195.19L323.64 195.06L323.93 194.92L324.22 194.79L324.5 194.67L324.78 194.55L325.06 194.43L325.33 194.33L325.61 194.22L325.88 194.13L326.14 194.04L326.41 193.95L326.67 193.88L326.93 193.81L327.19 193.75L327.44 193.69L327.69 193.65L327.94 193.61L328.18 193.59L328.42 193.57L328.66 193.56L328.89 193.57L329.12 193.58L329.35 193.6L329.57 193.64L329.8 193.68L330.01 193.74L330.23 193.81L330.44 193.89L330.65 193.98L330.85 194.09L331.05 194.21L331.24 194.34L331.44 194.49L331.63 194.65L331.81 194.83L358.33 221.35L358.5 221.53L358.67 221.72L358.82 221.92L358.95 222.11L359.08 222.32L359.19 222.53L359.29 222.74L359.37 222.96L359.45 223.18L359.51 223.4L359.57 223.63L359.61 223.86L359.64 224.09L359.66 224.33L359.67 224.57L359.67 224.82L359.66 225.06L359.64 225.31L359.61 225.57L359.57 225.82L359.52 226.08L359.46 226.34L359.4 226.6L359.33 226.87L359.24 227.14L359.16 227.4L359.06 227.67L358.95 227.95L358.84 228.22L358.73 228.49L358.6 228.77L358.47 229.05L358.33 229.32L358.19 229.6L358.04 229.88L357.89 230.16L357.73 230.44L357.56 230.73L357.4 231.01L357.22 231.29L346.69 249.48L346.91 249.88L348.65 253.41L350.26 257.02L351.73 260.7L353.07 264.45L353.59 266.14L373.87 271.55L374.19 271.63L374.51 271.71L374.82 271.79L375.13 271.87L375.44 271.96L375.74 272.06L376.04 272.15L376.34 272.25L376.62 272.36L376.91 272.46L377.19 272.57L377.46 272.69L377.72 272.81L377.98 272.93L378.23 273.06L378.48 273.19L378.72 273.32L378.95 273.46L379.18 273.61L379.39 273.76L379.6 273.91L379.8 274.07L379.99 274.23L380.17 274.4L380.35 274.57L380.51 274.75L380.66 274.93L380.81 275.12L380.94 275.31L381.07 275.51L381.18 275.71L381.28 275.92L381.37 276.14L381.45 276.36L381.52 276.58L381.58 276.81L381.62 277.05L381.65 277.29L381.67 277.54L381.68 277.8L381.68 315.3L381.67 315.55L381.65 315.8L381.62 316.04L381.58 316.28L381.52 316.5L381.45 316.72L381.37 316.93L381.28 317.14L381.18 317.34L381.07 317.53L380.94 317.72L380.81 317.91L380.66 318.08L380.51 318.26L380.35 318.42L380.17 318.59L379.99 318.74L379.8 318.9L379.6 319.05L379.39 319.19L379.18 319.33L378.95 319.47L378.72 319.61L378.48 319.74L378.23 319.87L377.98 319.99L377.72 320.11L377.46 320.23L377.19 320.35L376.91 320.47L376.62 320.58L376.34 320.69L376.04 320.8L375.74 320.91L375.44 321.02L375.13 321.13L374.82 321.23L374.51 321.34L374.19 321.44L373.87 321.55L353.59 326.95L353.07 328.65L351.73 332.4L350.26 336.08L348.65 339.69L346.91 343.22L346.71 343.58L357.22 361.74L357.4 362.02L357.56 362.3L357.73 362.58L357.89 362.86L358.04 363.14L358.19 363.42L358.33 363.7L358.47 363.98L358.6 364.26L358.73 364.53L358.84 364.81L358.95 365.08L359.06 365.35L359.16 365.62L359.24 365.89L359.33 366.16L359.4 366.42L359.46 366.68L359.52 366.94L359.57 367.2L359.61 367.46L359.64 367.71L359.66 367.96L359.67 368.21L359.67 368.45L359.66 368.69L359.64 368.93L359.61 369.17L359.57 369.4L359.51 369.63L359.45 369.85L359.37 370.07L359.29 370.29L359.19 370.5L359.08 370.71L358.95 370.91L358.82 371.11L358.67 371.3L358.5 371.49L358.33 371.68L331.81 398.2L331.63 398.37L331.44 398.53L331.24 398.68L331.05 398.81L330.85 398.93L330.65 399.04L330.44 399.13L330.23 399.22L330.01 399.29L329.8 399.34L329.57 399.39L329.35 399.42L329.12 399.45L328.89 399.46L328.66 399.46L328.42 399.45L328.18 399.44L327.94 399.41L327.69 399.38L327.44 399.33L327.19 399.28L326.93 399.22L326.67 399.15L326.41 399.07L326.14 398.99L325.88 398.9L325.61 398.8L325.33 398.7L325.06 398.59L324.78 398.48L324.5 398.36L324.22 398.23L323.93 398.1L323.64 397.97L323.35 397.83L323.06 397.69L322.77 397.54L322.47 397.4L322.17 397.24L321.87 397.09L303.71 386.58L303.35 386.78L299.82 388.52L296.21 390.13L292.53 391.6L288.78 392.93L287.09 393.46L281.68 413.74L281.58 414.06L281.47 414.38L281.36 414.69L281.26 415L281.15 415.31L281.04 415.61L280.93 415.91L280.82 416.21L280.71 416.49L280.6 416.78L280.48 417.05L280.37 417.33L280.25 417.59L280.12 417.85L280 418.1L279.87 418.35L279.74 418.59L279.6 418.82L279.47 419.04L279.32 419.26L279.18 419.47L279.03 419.67L278.88 419.86L278.72 420.04L278.55 420.21L278.39 420.38L278.21 420.53L278.04 420.68L277.85 420.81L277.67 420.94L277.47 421.05L277.27 421.15L277.06 421.24L276.85 421.32L276.63 421.39L276.41 421.45L276.17 421.49L275.93 421.52L275.69 421.54L275.43 421.55L237.93 421.55L237.67 421.54L237.43 421.52L237.18 421.49L236.94 421.45L236.71 421.39L236.49 421.32L236.27 421.24L236.05 421.15L235.84 421.05L235.64 420.94L235.44 420.81L235.25 420.68L235.06 420.53L234.88 420.38L234.7 420.21L234.53 420.04L234.36 419.86L234.2 419.67L234.04 419.47L233.89 419.26L233.74 419.04L233.59 418.82L233.45 418.59L233.32 418.35L233.19 418.1L233.06 417.85L232.94 417.59L232.82 417.33L232.7 417.05L232.59 416.78L232.49 416.49L232.38 416.21L232.28 415.91L232.19 415.61L232.09 415.31L232.01 415L231.92 414.69L231.84 414.38L231.76 414.06L231.68 413.74L226.28 393.46L224.58 392.93L220.83 391.6L217.15 390.13L213.54 388.52L210.01 386.78L209.58 386.54L191.49 397.02L191.21 397.19L190.93 397.36L190.65 397.52L190.37 397.68L190.09 397.84L189.81 397.99L189.53 398.13L189.25 398.27L188.97 398.4L188.7 398.52L188.42 398.64L188.15 398.75L187.88 398.85L187.61 398.95L187.34 399.04L187.07 399.12L186.81 399.19L186.55 399.26L186.29 399.31L186.03 399.36L185.77 399.4L185.52 399.43L185.27 399.45L185.02 399.46L184.78 399.46L184.54 399.45L184.3 399.43L184.06 399.4L183.83 399.36L183.6 399.31L183.38 399.24L183.16 399.17L182.94 399.08L182.73 398.98L182.52 398.87L182.32 398.75L182.12 398.61L181.93 398.46L181.74 398.3L181.55 398.12L155.03 371.61L154.86 371.42L154.7 371.23L154.55 371.04L154.42 370.84L154.3 370.64L154.19 370.44L154.1 370.23L154.01 370.02L153.95 369.81L153.89 369.59L153.84 369.37L153.81 369.15L153.78 368.92L153.77 368.69L153.77 368.45L153.78 368.21L153.79 367.97L153.82 367.73L153.86 367.48L153.9 367.23L153.95 366.98L154.01 366.72L154.08 366.47L154.16 366.2L154.24 365.94L154.33 365.67L154.43 365.4L154.53 365.13L154.64 364.85L154.75 364.58L154.87 364.3L155 364.01L155.13 363.73L155.26 363.44L155.4 363.15L155.54 362.86L155.69 362.56L155.83 362.26L155.99 361.96L156.14 361.66L166.63 343.54L166.45 343.22L164.71 339.69L163.1 336.08L161.63 332.4L160.3 328.65L159.77 326.95L139.49 321.55L139.17 321.44L138.85 321.34L138.54 321.23L138.23 321.13L137.92 321.02L137.62 320.91L137.32 320.8L137.02 320.69L136.74 320.58L136.45 320.47L136.18 320.35L135.9 320.23L135.64 320.11L135.38 319.99L135.13 319.87L134.88 319.74L134.64 319.61L134.41 319.47L134.19 319.33L133.97 319.19L133.76 319.05L133.56 318.9L133.37 318.74L133.19 318.59L133.02 318.42L132.85 318.26L132.7 318.08L132.55 317.91L132.42 317.72L132.29 317.53L132.18 317.34L132.08 317.14L131.99 316.93L131.91 316.72L131.84 316.5L131.78 316.28L131.74 316.04L131.71 315.8L131.69 315.55L131.68 315.3L131.68 277.8L131.69 277.54L131.71 277.29L131.74 277.05L131.78 276.81L131.84 276.58L131.91 276.36L131.99 276.14L132.08 275.92L132.18 275.71L132.29 275.51L132.42 275.31L132.55 275.12L132.7 274.93L132.85 274.75L133.02 274.57L133.19 274.4L133.37 274.23L133.56 274.07L133.76 273.91L133.97 273.76L134.19 273.61L134.41 273.46L134.64 273.32L134.88 273.19L135.13 273.06L135.38 272.93L135.64 272.81L135.9 272.69L136.18 272.57L136.45 272.46L136.74 272.36L137.02 272.25L137.32 272.15L137.62 272.06L137.92 271.96L138.23 271.87L138.54 271.79L138.85 271.71L139.17 271.63L139.49 271.55L159.77 266.14L160.3 264.45L161.63 260.7L163.1 257.02L164.71 253.41L166.45 249.88L166.65 249.52L156.14 231.36L155.99 231.06L155.83 230.76L155.69 230.46L155.54 230.17L155.4 229.88L155.26 229.59L155.13 229.3L155 229.01L154.87 228.73L154.75 228.45L154.64 228.17L154.53 227.9L154.43 227.62L154.33 227.35L154.24 227.09L154.16 226.82L154.08 226.56L154.01 226.3L153.95 226.04L153.9 225.79L153.86 225.54L153.82 225.29L153.79 225.05L153.78 224.81L153.77 224.57L153.77 224.34L153.78 224.11L153.81 223.88L153.84 223.66L153.89 223.43L153.95 223.22L154.01 223L154.1 222.79L154.19 222.59L154.3 222.38L154.42 222.18L154.55 221.99L154.7 221.79L154.86 221.6L155.03 221.42L181.55 194.9L181.74 194.73L181.93 194.56L182.12 194.41L182.32 194.28L182.52 194.15L182.73 194.04L182.94 193.94L183.16 193.86L183.38 193.78L183.6 193.72L183.83 193.67L184.06 193.62L184.3 193.59L184.54 193.57L184.78 193.56L185.02 193.56L185.27 193.57L185.52 193.59L185.77 193.62L186.03 193.66L186.29 193.71L186.55 193.77L186.81 193.83L187.07 193.91L187.34 193.99L187.61 194.08L187.88 194.17L188.15 194.28L188.42 194.39L188.7 194.5L188.97 194.63L189.25 194.76L189.53 194.9L189.81 195.04L190.09 195.19L190.37 195.34L190.65 195.5L190.93 195.67L191.21 195.83L191.49 196.01L209.65 206.52L210.01 206.32L213.54 204.58L217.15 202.97L220.83 201.5L224.58 200.17L226.28 199.64L231.68 179.36L231.76 179.04L231.84 178.72L231.92 178.41L232.01 178.1L232.09 177.79L232.19 177.49L232.28 177.19L232.38 176.89L232.49 176.61L232.59 176.32L232.7 176.05L232.82 175.77L232.94 175.51L233.06 175.25L233.19 175L233.32 174.75L233.45 174.51L233.59 174.28L233.74 174.06L233.89 173.84L234.04 173.63L234.2 173.43L234.36 173.24L234.53 173.06L234.7 172.88L234.88 172.72L235.06 172.57L235.25 172.42L235.44 172.29L235.64 172.16L235.84 172.05L236.05 171.95L236.27 171.86L236.49 171.78L236.71 171.71L236.94 171.65L237.18 171.61L237.43 171.58L237.67 171.56L237.93 171.55L275.43 171.55L275.69 171.56L275.93 171.58ZM252.2 242.04L249.99 242.27L247.81 242.58L245.66 242.97L243.54 243.45L241.45 244.01L239.4 244.65L237.38 245.37L235.39 246.16L233.45 247.03L231.55 247.97L229.69 248.98L227.87 250.06L226.1 251.2L224.38 252.41L222.71 253.69L221.09 255.03L219.52 256.42L218.01 257.88L216.55 259.39L215.16 260.96L213.82 262.58L212.54 264.25L211.33 265.97L210.19 267.74L209.11 269.56L208.1 271.42L207.16 273.32L206.29 275.26L205.5 277.25L204.78 279.26L204.14 281.32L203.58 283.41L203.1 285.53L202.71 287.68L202.4 289.86L202.17 292.06L202.04 294.3L201.99 296.55L202.04 298.8L202.17 301.04L202.4 303.24L202.71 305.42L203.1 307.57L203.58 309.69L204.14 311.78L204.78 313.84L205.5 315.85L206.29 317.84L207.16 319.78L208.1 321.68L209.11 323.54L210.19 325.36L211.33 327.13L212.54 328.85L213.82 330.52L215.16 332.14L216.55 333.71L218.01 335.22L219.52 336.68L221.09 338.07L222.71 339.41L224.38 340.69L226.1 341.9L227.87 343.04L229.69 344.12L231.55 345.13L233.45 346.07L235.39 346.94L237.38 347.73L239.4 348.45L241.45 349.09L243.54 349.65L245.66 350.13L247.81 350.52L249.99 350.83L252.2 351.06L254.43 351.19L256.68 351.24L258.93 351.19L261.17 351.06L263.37 350.83L265.55 350.52L267.7 350.13L269.82 349.65L271.91 349.09L273.97 348.45L275.99 347.73L277.97 346.94L279.91 346.07L281.81 345.13L283.67 344.12L285.49 343.04L287.26 341.9L288.98 340.69L290.65 339.41L292.27 338.07L293.84 336.68L295.35 335.22L296.81 333.71L298.2 332.14L299.54 330.52L300.82 328.85L302.03 327.13L303.17 325.36L304.25 323.54L305.26 321.68L306.2 319.78L307.07 317.84L307.86 315.85L308.58 313.84L309.22 311.78L309.78 309.69L310.26 307.57L310.65 305.42L310.96 303.24L311.19 301.04L311.32 298.8L311.37 296.55L311.32 294.3L311.19 292.06L310.96 289.86L310.65 287.68L310.26 285.53L309.78 283.41L309.22 281.32L308.58 279.26L307.86 277.25L307.07 275.26L306.2 273.32L305.26 271.42L304.25 269.56L303.17 267.74L302.03 265.97L300.82 264.25L299.54 262.58L298.2 260.96L296.81 259.39L295.35 257.88L293.84 256.42L292.27 255.03L290.65 253.69L288.98 252.41L287.26 251.2L285.49 250.06L283.67 248.98L281.81 247.97L279.91 247.03L277.97 246.16L275.99 245.37L273.97 244.65L271.91 244.01L269.82 243.45L267.7 242.97L265.55 242.58L263.37 242.27L261.17 242.04L258.93 241.91L256.68 241.86L254.43 241.91L252.2 242.04Z" id="cXNZINnd4"></path><path d="M405.89 306.39L406 306.37L406.1 306.36L406.21 306.35L406.31 306.34L406.41 306.35L406.51 306.36L406.61 306.37L406.71 306.39L406.81 306.42L406.91 306.45L407.01 306.48L407.1 306.52L407.2 306.57L407.29 306.62L407.39 306.67L407.48 306.73L407.58 306.79L407.67 306.86L407.76 306.93L407.86 307L407.95 307.08L408.04 307.16L408.13 307.25L408.22 307.34L408.31 307.43L408.41 307.53L408.5 307.62L408.59 307.72L408.68 307.83L408.77 307.93L408.86 308.04L408.96 308.15L409.05 308.26L409.14 308.38L409.23 308.49L409.32 308.61L409.42 308.73L409.51 308.85L414.9 316.64L415.7 316.61L417.49 316.63L419.27 316.72L421.04 316.88L422.8 317.11L422.95 317.14L429.03 310.05L429.14 309.94L429.24 309.84L429.34 309.73L429.45 309.63L429.55 309.53L429.65 309.43L429.75 309.33L429.85 309.23L429.95 309.14L430.05 309.05L430.15 308.96L430.25 308.87L430.35 308.79L430.45 308.71L430.55 308.63L430.65 308.56L430.75 308.49L430.85 308.42L430.95 308.36L431.04 308.3L431.14 308.25L431.24 308.2L431.34 308.15L431.44 308.11L431.54 308.07L431.64 308.04L431.74 308.01L431.84 307.99L431.94 307.97L432.04 307.96L432.14 307.95L432.24 307.95L432.34 307.95L432.44 307.96L432.55 307.98L432.65 308L432.75 308.03L432.86 308.06L432.96 308.1L433.07 308.15L448.33 315.53L448.44 315.58L448.53 315.63L448.63 315.7L448.71 315.76L448.8 315.83L448.88 315.9L448.95 315.98L449.02 316.05L449.09 316.14L449.15 316.22L449.21 316.31L449.26 316.4L449.31 316.5L449.35 316.59L449.39 316.7L449.43 316.8L449.46 316.9L449.49 317.01L449.52 317.12L449.54 317.24L449.56 317.35L449.58 317.47L449.59 317.59L449.6 317.71L449.61 317.84L449.61 317.96L449.61 318.09L449.61 318.22L449.6 318.35L449.6 318.49L449.59 318.62L449.57 318.76L449.56 318.89L449.54 319.03L449.52 319.17L449.5 319.31L449.47 319.45L449.45 319.6L449.42 319.74L449.39 319.88L447.72 329.09L447.88 329.22L449.15 330.46L450.39 331.75L451.57 333.1L452.71 334.49L453.19 335.13L462.59 334.49L462.74 334.47L462.88 334.46L463.03 334.45L463.17 334.44L463.32 334.43L463.46 334.43L463.6 334.43L463.74 334.43L463.88 334.43L464.01 334.43L464.15 334.44L464.28 334.45L464.41 334.46L464.54 334.48L464.67 334.49L464.79 334.51L464.91 334.54L465.03 334.56L465.15 334.59L465.26 334.62L465.37 334.66L465.48 334.69L465.59 334.74L465.69 334.78L465.79 334.83L465.89 334.88L465.98 334.93L466.07 334.99L466.16 335.05L466.24 335.12L466.32 335.19L466.39 335.26L466.46 335.34L466.53 335.42L466.59 335.51L466.65 335.6L466.71 335.69L466.76 335.79L466.81 335.89L466.85 336L472.59 351.84L472.63 351.95L472.66 352.05L472.68 352.16L472.7 352.26L472.71 352.37L472.71 352.47L472.71 352.57L472.71 352.67L472.69 352.77L472.67 352.87L472.65 352.97L472.62 353.06L472.59 353.16L472.55 353.25L472.51 353.35L472.46 353.44L472.4 353.54L472.35 353.63L472.29 353.72L472.22 353.81L472.15 353.9L472.08 353.99L472 354.08L471.92 354.17L471.83 354.26L471.75 354.35L471.66 354.44L471.56 354.53L471.47 354.62L471.37 354.71L471.26 354.8L471.16 354.89L471.05 354.98L470.94 355.06L470.83 355.15L470.72 355.24L470.6 355.33L470.49 355.42L470.37 355.51L470.25 355.6L462.51 360.81L462.54 361.6L462.56 363.38L462.5 365.15L462.37 366.9L462.17 368.65L462.14 368.83L469.37 374.98L469.48 375.07L469.6 375.17L469.71 375.26L469.82 375.36L469.93 375.45L470.03 375.55L470.14 375.65L470.24 375.74L470.34 375.84L470.43 375.94L470.52 376.04L470.61 376.14L470.7 376.24L470.78 376.34L470.86 376.44L470.93 376.54L471 376.64L471.07 376.74L471.14 376.85L471.2 376.95L471.25 377.05L471.3 377.15L471.35 377.26L471.39 377.36L471.43 377.46L471.46 377.56L471.49 377.67L471.51 377.77L471.53 377.88L471.54 377.98L471.55 378.08L471.55 378.19L471.55 378.29L471.54 378.39L471.52 378.5L471.5 378.6L471.48 378.71L471.44 378.81L471.4 378.91L471.36 379.02L464.21 394.04L464.16 394.14L464.11 394.24L464.05 394.33L463.98 394.41L463.92 394.49L463.85 394.57L463.78 394.64L463.7 394.7L463.62 394.76L463.54 394.82L463.45 394.87L463.36 394.92L463.27 394.96L463.17 395L463.07 395.03L462.97 395.06L462.87 395.09L462.76 395.11L462.65 395.13L462.54 395.15L462.42 395.17L462.31 395.18L462.19 395.19L462.06 395.19L461.94 395.19L461.81 395.19L461.68 395.19L461.55 395.19L461.42 395.18L461.28 395.17L461.15 395.16L461.01 395.15L460.87 395.14L460.73 395.12L460.58 395.11L460.44 395.09L460.29 395.07L460.14 395.05L459.99 395.03L459.84 395.01L450.56 393.19L450.44 393.32L449.21 394.57L447.93 395.77L446.6 396.92L445.22 398.03L444.59 398.49L445.41 407.84L445.41 407.99L445.42 408.14L445.42 408.29L445.42 408.43L445.42 408.58L445.42 408.72L445.42 408.86L445.42 409L445.42 409.14L445.41 409.28L445.41 409.41L445.4 409.54L445.39 409.67L445.38 409.8L445.36 409.92L445.35 410.05L445.33 410.17L445.31 410.28L445.28 410.4L445.26 410.51L445.23 410.62L445.19 410.73L445.16 410.83L445.12 410.93L445.08 411.02L445.03 411.12L444.98 411.21L444.93 411.29L444.87 411.38L444.81 411.46L444.75 411.53L444.68 411.61L444.61 411.67L444.53 411.74L444.45 411.8L444.36 411.85L444.27 411.91L444.17 411.96L444.07 412L443.96 412.04L428.11 417.45L428.01 417.48L427.9 417.51L427.79 417.53L427.68 417.55L427.58 417.56L427.47 417.56L427.36 417.56L427.26 417.55L427.16 417.54L427.05 417.52L426.95 417.5L426.85 417.47L426.75 417.43L426.64 417.39L426.54 417.35L426.45 417.3L426.35 417.25L426.25 417.19L426.15 417.13L426.05 417.07L425.96 417L425.86 416.92L425.77 416.84L425.68 416.76L425.58 416.68L425.49 416.59L425.4 416.5L425.31 416.4L425.22 416.3L425.13 416.2L425.04 416.1L424.95 415.99L424.86 415.88L424.78 415.77L424.69 415.66L424.61 415.54L424.52 415.42L424.44 415.3L424.36 415.18L424.28 415.05L418.89 407.27L418.09 407.29L416.3 407.27L414.52 407.18L412.75 407.02L410.99 406.79L410.77 406.75L404.73 413.79L404.64 413.9L404.55 414.01L404.45 414.12L404.36 414.23L404.26 414.34L404.17 414.44L404.07 414.54L403.98 414.64L403.88 414.73L403.78 414.82L403.68 414.91L403.58 415L403.49 415.08L403.39 415.16L403.29 415.24L403.19 415.31L403.09 415.38L402.98 415.45L402.88 415.51L402.78 415.57L402.68 415.62L402.58 415.67L402.47 415.71L402.37 415.75L402.27 415.79L402.17 415.82L402.06 415.84L401.96 415.87L401.85 415.88L401.75 415.89L401.64 415.9L401.54 415.9L401.44 415.89L401.33 415.88L401.23 415.86L401.12 415.84L401.02 415.81L400.91 415.78L400.8 415.74L400.7 415.69L385.43 408.31L385.33 408.26L385.23 408.2L385.14 408.14L385.05 408.08L384.97 408.01L384.9 407.94L384.83 407.87L384.76 407.79L384.7 407.71L384.64 407.63L384.59 407.54L384.54 407.45L384.49 407.36L384.45 407.26L384.41 407.16L384.38 407.06L384.35 406.96L384.33 406.85L384.3 406.74L384.28 406.63L384.27 406.52L384.25 406.4L384.24 406.28L384.23 406.16L384.23 406.04L384.23 405.91L384.23 405.78L384.23 405.65L384.23 405.52L384.24 405.39L384.25 405.25L384.25 405.11L384.27 404.97L384.28 404.83L384.29 404.69L384.31 404.55L384.32 404.4L384.34 404.25L384.36 404.1L384.38 403.95L386.04 394.79L385.91 394.68L384.63 393.44L383.4 392.15L382.21 390.81L381.08 389.41L380.6 388.77L371.2 389.42L371.05 389.42L370.9 389.42L370.75 389.42L370.6 389.42L370.45 389.42L370.31 389.42L370.16 389.41L370.02 389.41L369.88 389.4L369.75 389.4L369.61 389.39L369.48 389.38L369.35 389.37L369.22 389.35L369.09 389.33L368.97 389.32L368.85 389.29L368.73 389.27L368.62 389.25L368.5 389.22L368.39 389.19L368.29 389.15L368.18 389.11L368.08 389.07L367.98 389.03L367.89 388.98L367.8 388.93L367.71 388.88L367.62 388.82L367.54 388.76L367.46 388.69L367.39 388.62L367.32 388.55L367.25 388.47L367.19 388.39L367.13 388.3L367.08 388.21L367.03 388.11L366.98 388.01L366.94 387.9L361.2 372.06L361.16 371.96L361.13 371.85L361.11 371.74L361.09 371.63L361.08 371.53L361.07 371.42L361.07 371.32L361.08 371.21L361.09 371.11L361.1 371.01L361.13 370.91L361.15 370.81L361.19 370.71L361.22 370.61L361.27 370.51L361.31 370.41L361.36 370.31L361.42 370.22L361.48 370.12L361.54 370.03L361.61 369.93L361.69 369.84L361.76 369.75L361.84 369.66L361.93 369.56L362.01 369.47L362.1 369.39L362.2 369.3L362.3 369.21L362.4 369.12L362.5 369.04L362.61 368.95L362.71 368.87L362.83 368.78L362.94 368.7L363.06 368.62L363.17 368.54L363.29 368.46L363.42 368.38L363.54 368.3L371.28 363.09L371.24 362.3L371.23 360.52L371.29 358.75L371.42 357L371.62 355.25L371.64 355.08L364.42 348.92L364.31 348.82L364.2 348.71L364.09 348.61L363.99 348.51L363.88 348.4L363.78 348.3L363.68 348.2L363.58 348.1L363.48 347.99L363.39 347.89L363.3 347.79L363.21 347.69L363.12 347.59L363.04 347.49L362.96 347.39L362.89 347.29L362.82 347.19L362.75 347.09L362.68 346.99L362.62 346.89L362.56 346.8L362.51 346.7L362.46 346.6L362.42 346.5L362.38 346.4L362.34 346.3L362.31 346.2L362.29 346.1L362.27 346L362.26 345.9L362.25 345.8L362.24 345.7L362.24 345.6L362.25 345.5L362.27 345.4L362.29 345.3L362.31 345.19L362.35 345.09L362.38 344.99L362.43 344.88L369.58 329.86L369.63 329.76L369.68 329.66L369.74 329.57L369.81 329.48L369.87 329.4L369.94 329.33L370.02 329.25L370.1 329.19L370.18 329.12L370.26 329.06L370.35 329.01L370.44 328.96L370.54 328.91L370.63 328.87L370.73 328.83L370.84 328.79L370.94 328.76L371.05 328.73L371.16 328.71L371.28 328.69L371.39 328.67L371.51 328.66L371.63 328.65L371.76 328.64L371.88 328.64L372.01 328.64L372.14 328.64L372.27 328.64L372.4 328.65L372.54 328.66L372.67 328.67L372.81 328.69L372.95 328.71L373.09 328.73L373.23 328.75L373.37 328.77L373.51 328.8L373.66 328.83L373.8 328.86L373.95 328.89L383.23 330.71L383.35 330.58L384.58 329.33L385.85 328.13L387.18 326.98L388.57 325.87L389.2 325.41L388.38 316.06L388.36 315.92L388.35 315.77L388.34 315.63L388.32 315.48L388.32 315.34L388.31 315.2L388.3 315.06L388.3 314.92L388.3 314.78L388.3 314.65L388.31 314.52L388.31 314.38L388.32 314.25L388.33 314.13L388.35 314L388.37 313.88L388.39 313.76L388.41 313.64L388.44 313.53L388.47 313.41L388.5 313.3L388.54 313.2L388.58 313.09L388.62 312.99L388.67 312.89L388.72 312.8L388.77 312.71L388.83 312.62L388.89 312.53L388.95 312.45L389.02 312.38L389.09 312.3L389.17 312.23L389.25 312.17L389.34 312.11L389.42 312.05L389.52 312L389.62 311.95L389.72 311.9L389.83 311.86L405.67 306.45L405.78 306.42L405.89 306.39ZM406.65 339.58L405.75 339.99L404.88 340.44L404.03 340.91L403.21 341.42L402.41 341.96L401.64 342.53L400.9 343.12L400.18 343.74L399.49 344.39L398.83 345.06L398.2 345.75L397.6 346.47L397.03 347.21L396.49 347.97L395.97 348.75L395.49 349.55L395.05 350.36L394.63 351.2L394.25 352.05L393.9 352.91L393.58 353.79L393.3 354.68L393.05 355.58L392.83 356.49L392.66 357.41L392.51 358.35L392.41 359.28L392.34 360.23L392.31 361.18L392.31 362.14L392.36 363.1L392.44 364.06L392.56 365.03L392.73 365.99L392.93 366.96L393.17 367.92L393.46 368.88L393.78 369.84L394.15 370.79L394.55 371.71L394.98 372.61L395.44 373.48L395.94 374.33L396.47 375.16L397.02 375.96L397.61 376.74L398.22 377.49L398.86 378.21L399.52 378.91L400.21 379.57L400.92 380.21L401.66 380.82L402.41 381.41L403.19 381.96L403.98 382.48L404.8 382.97L405.63 383.43L406.47 383.86L407.34 384.26L408.21 384.62L409.1 384.95L410 385.25L410.92 385.51L411.84 385.74L412.77 385.94L413.71 386.1L414.66 386.22L415.62 386.3L416.57 386.35L417.54 386.36L418.5 386.34L419.47 386.27L420.44 386.17L421.41 386.03L422.38 385.84L423.35 385.62L424.31 385.35L425.27 385.05L426.22 384.7L427.14 384.32L428.04 383.91L428.91 383.47L429.76 382.99L430.58 382.48L431.38 381.94L432.15 381.38L432.89 380.78L433.61 380.16L434.3 379.52L434.96 378.84L435.59 378.15L436.19 377.43L436.76 376.69L437.3 375.93L437.81 375.15L438.29 374.35L438.74 373.54L439.16 372.7L439.54 371.86L439.89 370.99L440.21 370.11L440.49 369.22L440.74 368.32L440.95 367.41L441.13 366.49L441.27 365.56L441.38 364.62L441.45 363.67L441.48 362.72L441.47 361.76L441.43 360.8L441.35 359.84L441.22 358.88L441.06 357.91L440.86 356.95L440.62 355.98L440.33 355.02L440.01 354.06L439.64 353.12L439.24 352.19L438.81 351.29L438.34 350.42L437.85 349.57L437.32 348.74L436.76 347.94L436.18 347.16L435.57 346.41L434.93 345.69L434.27 345L433.58 344.33L432.86 343.69L432.13 343.08L431.38 342.5L430.6 341.94L429.8 341.42L428.99 340.93L428.16 340.47L427.31 340.04L426.45 339.64L425.58 339.28L424.69 338.95L423.78 338.65L422.87 338.39L421.95 338.16L421.01 337.96L420.07 337.81L419.13 337.68L418.17 337.6L417.21 337.55L416.25 337.54L415.28 337.56L414.32 337.63L413.35 337.73L412.38 337.88L411.41 338.06L410.44 338.28L409.48 338.55L408.52 338.85L407.57 339.2L406.65 339.58Z" id="b1qSbBu1Vv"></path></defs><g><g><g><g><filter id="shadow10321938" x="337.47" y="121.22" width="207.2" height="207.34" filterUnits="userSpaceOnUse" primitiveUnits="userSpaceOnUse"><feFlood></feFlood><feComposite in2="SourceAlpha" operator="in"></feComposite><feGaussianBlur stdDeviation="2.24"></feGaussianBlur><feOffset dx="2" dy="2" result="afterOffset"></feOffset><feFlood flood-color="#000000" flood-opacity="0.5"></feFlood><feComposite in2="afterOffset" operator="in"></feComposite><feMorphology operator="dilate" radius="1"></feMorphology><feComposite in2="SourceAlpha" operator="out"></feComposite></filter><path d="M424.17 139.3L424.33 139.27L424.49 139.24L424.65 139.23L424.81 139.22L424.96 139.23L425.11 139.24L425.27 139.26L425.42 139.29L425.57 139.32L425.71 139.37L425.86 139.42L426.01 139.48L426.15 139.55L426.29 139.62L426.44 139.7L426.58 139.79L426.72 139.89L426.86 139.99L427 140.1L427.14 140.21L427.28 140.33L427.41 140.45L427.55 140.58L427.69 140.71L427.83 140.85L427.96 141L428.1 141.14L428.24 141.3L428.37 141.45L428.51 141.61L428.65 141.77L428.79 141.94L428.92 142.11L429.06 142.29L429.2 142.46L429.34 142.64L429.48 142.82L429.62 143L437.67 154.8L438.88 154.76L441.58 154.77L444.28 154.88L446.96 155.1L449.62 155.43L449.84 155.46L459.14 144.58L459.3 144.41L459.46 144.25L459.62 144.09L459.77 143.93L459.93 143.77L460.08 143.62L460.24 143.46L460.39 143.32L460.55 143.17L460.7 143.03L460.85 142.9L461 142.76L461.16 142.64L461.31 142.51L461.46 142.4L461.61 142.28L461.76 142.17L461.91 142.07L462.06 141.98L462.21 141.88L462.36 141.8L462.51 141.72L462.66 141.65L462.81 141.58L462.96 141.53L463.11 141.47L463.26 141.43L463.42 141.39L463.57 141.37L463.72 141.35L463.87 141.33L464.03 141.33L464.18 141.33L464.33 141.35L464.49 141.37L464.64 141.4L464.8 141.44L464.96 141.49L465.11 141.56L465.27 141.63L488.27 152.67L488.43 152.75L488.58 152.84L488.72 152.93L488.85 153.03L488.97 153.13L489.09 153.24L489.2 153.35L489.31 153.47L489.41 153.59L489.5 153.72L489.58 153.86L489.66 154L489.74 154.14L489.8 154.29L489.86 154.44L489.92 154.6L489.97 154.76L490.01 154.93L490.05 155.09L490.08 155.27L490.11 155.44L490.13 155.62L490.15 155.81L490.16 155.99L490.17 156.18L490.17 156.38L490.17 156.57L490.17 156.77L490.16 156.97L490.15 157.17L490.13 157.38L490.11 157.58L490.08 157.79L490.05 158.01L490.02 158.22L489.99 158.43L489.95 158.65L489.91 158.87L489.86 159.09L489.81 159.31L487.17 173.36L487.4 173.57L489.32 175.44L491.16 177.4L492.94 179.43L494.64 181.54L495.36 182.51L509.59 181.4L509.81 181.38L510.04 181.36L510.26 181.34L510.48 181.33L510.69 181.31L510.91 181.31L511.12 181.3L511.33 181.3L511.54 181.3L511.75 181.3L511.95 181.31L512.15 181.32L512.35 181.34L512.54 181.36L512.73 181.39L512.92 181.41L513.1 181.45L513.28 181.49L513.46 181.53L513.63 181.57L513.8 181.63L513.96 181.68L514.12 181.74L514.28 181.81L514.43 181.88L514.57 181.96L514.71 182.04L514.85 182.13L514.98 182.22L515.1 182.32L515.22 182.43L515.33 182.54L515.44 182.65L515.54 182.78L515.64 182.91L515.73 183.04L515.81 183.19L515.88 183.34L515.95 183.49L516.02 183.65L524.49 207.73L524.55 207.9L524.59 208.06L524.62 208.22L524.65 208.38L524.66 208.54L524.67 208.7L524.66 208.85L524.65 209L524.63 209.16L524.6 209.31L524.57 209.46L524.52 209.6L524.47 209.75L524.41 209.9L524.34 210.04L524.27 210.18L524.19 210.33L524.1 210.47L524 210.61L523.9 210.75L523.8 210.89L523.68 211.03L523.57 211.17L523.44 211.3L523.31 211.44L523.18 211.58L523.04 211.72L522.9 211.85L522.75 211.99L522.6 212.13L522.44 212.26L522.28 212.4L522.12 212.54L521.95 212.68L521.78 212.81L521.61 212.95L521.43 213.09L521.26 213.23L521.08 213.37L520.89 213.51L509.11 221.55L509.15 222.76L509.15 225.47L509.04 228.16L508.82 230.84L508.5 233.51L508.45 233.78L519.3 243.07L519.47 243.21L519.65 243.35L519.81 243.49L519.98 243.64L520.14 243.78L520.3 243.93L520.46 244.08L520.61 244.22L520.75 244.37L520.9 244.52L521.03 244.67L521.17 244.82L521.29 244.97L521.42 245.13L521.53 245.28L521.65 245.43L521.75 245.58L521.85 245.74L521.95 245.89L522.04 246.05L522.12 246.2L522.2 246.36L522.27 246.51L522.33 246.67L522.39 246.83L522.43 246.98L522.47 247.14L522.51 247.3L522.53 247.46L522.55 247.62L522.56 247.77L522.56 247.93L522.56 248.09L522.54 248.25L522.52 248.41L522.48 248.57L522.44 248.73L522.39 248.88L522.33 249.04L522.26 249.2L511.24 272.21L511.16 272.36L511.08 272.51L510.99 272.65L510.89 272.78L510.79 272.9L510.68 273.01L510.57 273.12L510.45 273.22L510.33 273.31L510.21 273.4L510.08 273.48L509.94 273.55L509.8 273.62L509.65 273.68L509.5 273.73L509.35 273.78L509.19 273.83L509.03 273.86L508.86 273.9L508.69 273.92L508.52 273.95L508.34 273.97L508.16 273.98L507.97 273.99L507.78 274L507.59 274L507.4 274L507.2 273.99L507 273.99L506.79 273.97L506.59 273.96L506.38 273.94L506.16 273.93L505.95 273.9L505.73 273.88L505.51 273.86L505.29 273.83L505.07 273.8L504.84 273.77L504.61 273.74L490.59 271.09L490.4 271.29L488.53 273.21L486.58 275.06L484.55 276.84L482.45 278.54L481.48 279.26L482.6 293.5L482.6 293.73L482.61 293.95L482.61 294.18L482.61 294.4L482.61 294.63L482.61 294.84L482.61 295.06L482.6 295.27L482.6 295.48L482.59 295.69L482.58 295.9L482.56 296.1L482.55 296.29L482.53 296.49L482.5 296.68L482.48 296.87L482.45 297.05L482.41 297.23L482.38 297.4L482.33 297.57L482.29 297.74L482.24 297.9L482.18 298.06L482.12 298.21L482.06 298.36L481.99 298.5L481.91 298.64L481.83 298.77L481.74 298.9L481.65 299.02L481.55 299.14L481.44 299.25L481.33 299.36L481.21 299.46L481.09 299.55L480.96 299.64L480.82 299.72L480.67 299.79L480.52 299.86L480.35 299.92L456.3 308.38L456.13 308.43L455.97 308.48L455.81 308.51L455.64 308.54L455.48 308.55L455.32 308.56L455.16 308.56L455 308.55L454.85 308.53L454.69 308.5L454.53 308.47L454.38 308.43L454.23 308.37L454.08 308.32L453.93 308.25L453.78 308.18L453.63 308.1L453.48 308.01L453.33 307.92L453.19 307.82L453.04 307.72L452.9 307.61L452.76 307.49L452.62 307.37L452.48 307.24L452.34 307.1L452.2 306.97L452.07 306.82L451.93 306.67L451.8 306.52L451.66 306.36L451.53 306.2L451.4 306.03L451.27 305.86L451.14 305.69L451.02 305.51L450.89 305.33L450.77 305.15L450.65 304.96L450.52 304.77L442.47 292.97L441.27 293.02L438.56 293.01L435.87 292.89L433.19 292.67L430.53 292.35L430.2 292.3L420.97 303.1L420.82 303.28L420.68 303.45L420.54 303.62L420.4 303.78L420.25 303.95L420.1 304.1L419.96 304.26L419.81 304.41L419.66 304.56L419.51 304.7L419.36 304.84L419.21 304.97L419.06 305.1L418.91 305.22L418.76 305.34L418.61 305.45L418.45 305.56L418.3 305.66L418.15 305.75L417.99 305.84L417.84 305.92L417.68 306L417.52 306.07L417.37 306.13L417.21 306.19L417.05 306.23L416.9 306.28L416.74 306.31L416.58 306.33L416.42 306.35L416.27 306.36L416.11 306.36L415.95 306.36L415.79 306.34L415.63 306.32L415.47 306.28L415.31 306.24L415.16 306.19L415 306.13L414.84 306.05L391.83 295.01L391.68 294.93L391.53 294.85L391.4 294.75L391.27 294.66L391.14 294.56L391.03 294.45L390.92 294.34L390.82 294.22L390.73 294.1L390.64 293.97L390.57 293.84L390.49 293.71L390.43 293.57L390.37 293.42L390.31 293.27L390.26 293.12L390.22 292.96L390.18 292.79L390.15 292.63L390.12 292.46L390.1 292.28L390.08 292.11L390.06 291.92L390.05 291.74L390.05 291.55L390.04 291.36L390.04 291.16L390.05 290.96L390.06 290.76L390.07 290.56L390.08 290.35L390.1 290.14L390.11 289.93L390.14 289.71L390.16 289.5L390.18 289.28L390.21 289.05L390.24 288.83L390.27 288.6L390.3 288.38L392.93 274.38L392.75 274.21L390.83 272.33L388.98 270.38L387.2 268.35L385.5 266.24L384.78 265.27L370.55 266.37L370.32 266.38L370.09 266.38L369.87 266.39L369.64 266.39L369.42 266.39L369.2 266.39L368.99 266.39L368.77 266.38L368.56 266.37L368.36 266.36L368.15 266.35L367.95 266.34L367.75 266.32L367.56 266.3L367.37 266.28L367.18 266.25L367 266.22L366.82 266.19L366.65 266.15L366.48 266.11L366.31 266.06L366.15 266.01L365.99 265.95L365.84 265.89L365.69 265.83L365.55 265.76L365.41 265.68L365.28 265.6L365.15 265.51L365.03 265.42L364.91 265.32L364.8 265.21L364.69 265.1L364.59 264.98L364.5 264.86L364.41 264.73L364.33 264.59L364.26 264.44L364.19 264.29L364.13 264.12L355.65 240.04L355.6 239.88L355.55 239.71L355.52 239.55L355.49 239.39L355.48 239.23L355.47 239.07L355.47 238.91L355.48 238.75L355.5 238.59L355.53 238.43L355.56 238.28L355.6 238.13L355.65 237.97L355.71 237.82L355.78 237.67L355.85 237.52L355.93 237.37L356.01 237.22L356.11 237.08L356.21 236.93L356.31 236.79L356.42 236.64L356.54 236.5L356.66 236.36L356.79 236.22L356.92 236.08L357.06 235.95L357.21 235.81L357.35 235.67L357.51 235.54L357.66 235.41L357.83 235.28L357.99 235.15L358.16 235.02L358.33 234.89L358.51 234.76L358.69 234.64L358.87 234.51L359.06 234.39L359.25 234.27L371.04 226.22L370.99 225.02L370.99 222.31L371.11 219.61L371.32 216.93L371.65 214.27L371.69 214L360.84 204.71L360.68 204.55L360.51 204.39L360.35 204.24L360.19 204.08L360.03 203.92L359.88 203.77L359.73 203.61L359.58 203.46L359.44 203.3L359.3 203.15L359.16 203L359.03 202.85L358.9 202.69L358.78 202.54L358.66 202.39L358.55 202.24L358.44 202.09L358.34 201.94L358.24 201.79L358.15 201.64L358.06 201.49L357.98 201.34L357.91 201.19L357.85 201.04L357.79 200.88L357.74 200.73L357.69 200.58L357.66 200.43L357.63 200.28L357.61 200.13L357.6 199.97L357.59 199.82L357.6 199.67L357.61 199.51L357.63 199.36L357.66 199.2L357.7 199.05L357.76 198.89L357.82 198.73L357.89 198.57L368.9 175.57L368.98 175.41L369.07 175.27L369.16 175.13L369.26 174.99L369.36 174.87L369.47 174.75L369.58 174.64L369.7 174.53L369.82 174.43L369.95 174.34L370.09 174.26L370.23 174.18L370.37 174.11L370.52 174.04L370.67 173.98L370.83 173.92L370.99 173.88L371.15 173.83L371.32 173.79L371.49 173.76L371.67 173.73L371.85 173.71L372.03 173.69L372.22 173.68L372.41 173.67L372.6 173.67L372.8 173.67L372.99 173.68L373.2 173.69L373.4 173.7L373.6 173.72L373.81 173.74L374.02 173.76L374.23 173.79L374.44 173.82L374.66 173.86L374.87 173.9L375.09 173.94L375.31 173.99L375.53 174.03L389.55 176.69L389.74 176.48L391.61 174.56L393.56 172.72L395.59 170.94L397.69 169.24L398.66 168.52L397.55 154.28L397.52 154.06L397.5 153.83L397.48 153.61L397.47 153.39L397.46 153.18L397.45 152.96L397.44 152.75L397.44 152.54L397.44 152.33L397.45 152.12L397.45 151.92L397.47 151.72L397.48 151.52L397.5 151.33L397.53 151.14L397.55 150.95L397.59 150.77L397.62 150.59L397.67 150.41L397.71 150.24L397.76 150.07L397.82 149.91L397.88 149.75L397.95 149.59L398.02 149.44L398.1 149.3L398.18 149.16L398.27 149.02L398.36 148.89L398.46 148.77L398.56 148.65L398.67 148.53L398.79 148.43L398.91 148.33L399.04 148.23L399.18 148.14L399.32 148.06L399.47 147.99L399.63 147.92L399.79 147.85L423.84 139.4L424.01 139.34L424.17 139.3ZM424.87 189.9L423.51 190.54L422.18 191.23L420.89 191.97L419.64 192.76L418.43 193.59L417.25 194.46L416.12 195.38L415.03 196.33L413.98 197.33L412.97 198.36L412 199.43L411.08 200.53L410.21 201.67L409.38 202.83L408.59 204.03L407.86 205.25L407.17 206.5L406.53 207.78L405.93 209.08L405.39 210.4L404.9 211.74L404.46 213.11L404.07 214.48L403.74 215.88L403.45 217.29L403.23 218.71L403.05 220.14L402.94 221.59L402.88 223.04L402.87 224.5L402.93 225.96L403.04 227.43L403.21 228.9L403.45 230.37L403.74 231.84L404.09 233.3L404.51 234.77L404.99 236.22L405.53 237.66L406.12 239.06L406.76 240.43L407.46 241.76L408.2 243.05L408.98 244.3L409.81 245.52L410.69 246.69L411.6 247.83L412.56 248.92L413.56 249.97L414.59 250.98L415.66 251.95L416.76 252.87L417.89 253.75L419.06 254.58L420.26 255.37L421.48 256.11L422.73 256.8L424.01 257.44L425.31 258.03L426.63 258.58L427.97 259.07L429.33 259.51L430.71 259.9L432.1 260.24L433.51 260.52L434.93 260.75L436.36 260.93L437.81 261.05L439.26 261.11L440.71 261.11L442.18 261.06L443.64 260.95L445.11 260.78L446.58 260.54L448.05 260.25L449.51 259.9L450.98 259.48L452.43 259L453.87 258.47L455.27 257.88L456.63 257.23L457.96 256.54L459.25 255.8L460.5 255.02L461.72 254.19L462.89 253.31L464.02 252.4L465.12 251.44L466.17 250.45L467.17 249.41L468.14 248.35L469.06 247.24L469.93 246.11L470.77 244.94L471.55 243.75L472.29 242.52L472.98 241.27L473.62 240L474.21 238.7L474.75 237.37L475.24 236.03L475.68 234.67L476.07 233.29L476.41 231.9L476.69 230.49L476.92 229.07L477.09 227.63L477.21 226.19L477.27 224.74L477.27 223.28L477.22 221.82L477.1 220.35L476.93 218.88L476.7 217.41L476.4 215.94L476.05 214.47L475.63 213.01L475.15 211.55L474.61 210.12L474.02 208.71L473.38 207.35L472.69 206.02L471.95 204.73L471.16 203.47L470.33 202.26L469.46 201.08L468.54 199.95L467.58 198.85L466.59 197.8L465.55 196.79L464.49 195.83L463.38 194.9L462.25 194.03L461.08 193.19L459.89 192.41L458.66 191.67L457.41 190.98L456.14 190.34L454.84 189.74L453.52 189.2L452.17 188.71L450.81 188.26L449.43 187.87L448.04 187.54L446.63 187.25L445.21 187.02L443.78 186.85L442.34 186.73L440.89 186.67L439.43 186.66L437.97 186.72L436.5 186.83L435.03 187L433.56 187.23L432.09 187.52L430.63 187.88L429.17 188.29L427.71 188.77L426.27 189.31L424.87 189.9Z" id="dy4y7wlQt" fill="white" fill-opacity="1" filter="url(#shadow10321938)"></path></g><use xlink:href="#f2DFf66Bop" opacity="1" fill="#000307" fill-opacity="1"></use></g><g><g><filter id="shadow2601188" x="113.68" y="153.55" width="288" height="288" filterUnits="userSpaceOnUse" primitiveUnits="userSpaceOnUse"><feFlood></feFlood><feComposite in2="SourceAlpha" operator="in"></feComposite><feGaussianBlur stdDeviation="2.24"></feGaussianBlur><feOffset dx="2" dy="2" result="afterOffset"></feOffset><feFlood flood-color="#000000" flood-opacity="0.5"></feFlood><feComposite in2="afterOffset" operator="in"></feComposite><feMorphology operator="dilate" radius="1"></feMorphology><feComposite in2="SourceAlpha" operator="out"></feComposite></filter><path d="M275.93 171.58L276.17 171.61L276.41 171.65L276.63 171.71L276.85 171.78L277.06 171.86L277.27 171.95L277.47 172.05L277.67 172.16L277.85 172.29L278.04 172.42L278.21 172.57L278.39 172.72L278.55 172.88L278.72 173.06L278.88 173.24L279.03 173.43L279.18 173.63L279.32 173.84L279.47 174.06L279.6 174.28L279.74 174.51L279.87 174.75L280 175L280.12 175.25L280.25 175.51L280.37 175.77L280.48 176.05L280.6 176.32L280.71 176.61L280.82 176.89L280.93 177.19L281.04 177.49L281.15 177.79L281.26 178.1L281.36 178.41L281.47 178.72L281.58 179.04L281.68 179.36L287.09 199.64L288.78 200.17L292.53 201.5L296.21 202.97L299.82 204.58L303.35 206.32L303.65 206.48L321.87 195.93L322.17 195.78L322.47 195.63L322.77 195.48L323.06 195.34L323.35 195.19L323.64 195.06L323.93 194.92L324.22 194.79L324.5 194.67L324.78 194.55L325.06 194.43L325.33 194.33L325.61 194.22L325.88 194.13L326.14 194.04L326.41 193.95L326.67 193.88L326.93 193.81L327.19 193.75L327.44 193.69L327.69 193.65L327.94 193.61L328.18 193.59L328.42 193.57L328.66 193.56L328.89 193.57L329.12 193.58L329.35 193.6L329.57 193.64L329.8 193.68L330.01 193.74L330.23 193.81L330.44 193.89L330.65 193.98L330.85 194.09L331.05 194.21L331.24 194.34L331.44 194.49L331.63 194.65L331.81 194.83L358.33 221.35L358.5 221.53L358.67 221.72L358.82 221.92L358.95 222.11L359.08 222.32L359.19 222.53L359.29 222.74L359.37 222.96L359.45 223.18L359.51 223.4L359.57 223.63L359.61 223.86L359.64 224.09L359.66 224.33L359.67 224.57L359.67 224.82L359.66 225.06L359.64 225.31L359.61 225.57L359.57 225.82L359.52 226.08L359.46 226.34L359.4 226.6L359.33 226.87L359.24 227.14L359.16 227.4L359.06 227.67L358.95 227.95L358.84 228.22L358.73 228.49L358.6 228.77L358.47 229.05L358.33 229.32L358.19 229.6L358.04 229.88L357.89 230.16L357.73 230.44L357.56 230.73L357.4 231.01L357.22 231.29L346.69 249.48L346.91 249.88L348.65 253.41L350.26 257.02L351.73 260.7L353.07 264.45L353.59 266.14L373.87 271.55L374.19 271.63L374.51 271.71L374.82 271.79L375.13 271.87L375.44 271.96L375.74 272.06L376.04 272.15L376.34 272.25L376.62 272.36L376.91 272.46L377.19 272.57L377.46 272.69L377.72 272.81L377.98 272.93L378.23 273.06L378.48 273.19L378.72 273.32L378.95 273.46L379.18 273.61L379.39 273.76L379.6 273.91L379.8 274.07L379.99 274.23L380.17 274.4L380.35 274.57L380.51 274.75L380.66 274.93L380.81 275.12L380.94 275.31L381.07 275.51L381.18 275.71L381.28 275.92L381.37 276.14L381.45 276.36L381.52 276.58L381.58 276.81L381.62 277.05L381.65 277.29L381.67 277.54L381.68 277.8L381.68 315.3L381.67 315.55L381.65 315.8L381.62 316.04L381.58 316.28L381.52 316.5L381.45 316.72L381.37 316.93L381.28 317.14L381.18 317.34L381.07 317.53L380.94 317.72L380.81 317.91L380.66 318.08L380.51 318.26L380.35 318.42L380.17 318.59L379.99 318.74L379.8 318.9L379.6 319.05L379.39 319.19L379.18 319.33L378.95 319.47L378.72 319.61L378.48 319.74L378.23 319.87L377.98 319.99L377.72 320.11L377.46 320.23L377.19 320.35L376.91 320.47L376.62 320.58L376.34 320.69L376.04 320.8L375.74 320.91L375.44 321.02L375.13 321.13L374.82 321.23L374.51 321.34L374.19 321.44L373.87 321.55L353.59 326.95L353.07 328.65L351.73 332.4L350.26 336.08L348.65 339.69L346.91 343.22L346.71 343.58L357.22 361.74L357.4 362.02L357.56 362.3L357.73 362.58L357.89 362.86L358.04 363.14L358.19 363.42L358.33 363.7L358.47 363.98L358.6 364.26L358.73 364.53L358.84 364.81L358.95 365.08L359.06 365.35L359.16 365.62L359.24 365.89L359.33 366.16L359.4 366.42L359.46 366.68L359.52 366.94L359.57 367.2L359.61 367.46L359.64 367.71L359.66 367.96L359.67 368.21L359.67 368.45L359.66 368.69L359.64 368.93L359.61 369.17L359.57 369.4L359.51 369.63L359.45 369.85L359.37 370.07L359.29 370.29L359.19 370.5L359.08 370.71L358.95 370.91L358.82 371.11L358.67 371.3L358.5 371.49L358.33 371.68L331.81 398.2L331.63 398.37L331.44 398.53L331.24 398.68L331.05 398.81L330.85 398.93L330.65 399.04L330.44 399.13L330.23 399.22L330.01 399.29L329.8 399.34L329.57 399.39L329.35 399.42L329.12 399.45L328.89 399.46L328.66 399.46L328.42 399.45L328.18 399.44L327.94 399.41L327.69 399.38L327.44 399.33L327.19 399.28L326.93 399.22L326.67 399.15L326.41 399.07L326.14 398.99L325.88 398.9L325.61 398.8L325.33 398.7L325.06 398.59L324.78 398.48L324.5 398.36L324.22 398.23L323.93 398.1L323.64 397.97L323.35 397.83L323.06 397.69L322.77 397.54L322.47 397.4L322.17 397.24L321.87 397.09L303.71 386.58L303.35 386.78L299.82 388.52L296.21 390.13L292.53 391.6L288.78 392.93L287.09 393.46L281.68 413.74L281.58 414.06L281.47 414.38L281.36 414.69L281.26 415L281.15 415.31L281.04 415.61L280.93 415.91L280.82 416.21L280.71 416.49L280.6 416.78L280.48 417.05L280.37 417.33L280.25 417.59L280.12 417.85L280 418.1L279.87 418.35L279.74 418.59L279.6 418.82L279.47 419.04L279.32 419.26L279.18 419.47L279.03 419.67L278.88 419.86L278.72 420.04L278.55 420.21L278.39 420.38L278.21 420.53L278.04 420.68L277.85 420.81L277.67 420.94L277.47 421.05L277.27 421.15L277.06 421.24L276.85 421.32L276.63 421.39L276.41 421.45L276.17 421.49L275.93 421.52L275.69 421.54L275.43 421.55L237.93 421.55L237.67 421.54L237.43 421.52L237.18 421.49L236.94 421.45L236.71 421.39L236.49 421.32L236.27 421.24L236.05 421.15L235.84 421.05L235.64 420.94L235.44 420.81L235.25 420.68L235.06 420.53L234.88 420.38L234.7 420.21L234.53 420.04L234.36 419.86L234.2 419.67L234.04 419.47L233.89 419.26L233.74 419.04L233.59 418.82L233.45 418.59L233.32 418.35L233.19 418.1L233.06 417.85L232.94 417.59L232.82 417.33L232.7 417.05L232.59 416.78L232.49 416.49L232.38 416.21L232.28 415.91L232.19 415.61L232.09 415.31L232.01 415L231.92 414.69L231.84 414.38L231.76 414.06L231.68 413.74L226.28 393.46L224.58 392.93L220.83 391.6L217.15 390.13L213.54 388.52L210.01 386.78L209.58 386.54L191.49 397.02L191.21 397.19L190.93 397.36L190.65 397.52L190.37 397.68L190.09 397.84L189.81 397.99L189.53 398.13L189.25 398.27L188.97 398.4L188.7 398.52L188.42 398.64L188.15 398.75L187.88 398.85L187.61 398.95L187.34 399.04L187.07 399.12L186.81 399.19L186.55 399.26L186.29 399.31L186.03 399.36L185.77 399.4L185.52 399.43L185.27 399.45L185.02 399.46L184.78 399.46L184.54 399.45L184.3 399.43L184.06 399.4L183.83 399.36L183.6 399.31L183.38 399.24L183.16 399.17L182.94 399.08L182.73 398.98L182.52 398.87L182.32 398.75L182.12 398.61L181.93 398.46L181.74 398.3L181.55 398.12L155.03 371.61L154.86 371.42L154.7 371.23L154.55 371.04L154.42 370.84L154.3 370.64L154.19 370.44L154.1 370.23L154.01 370.02L153.95 369.81L153.89 369.59L153.84 369.37L153.81 369.15L153.78 368.92L153.77 368.69L153.77 368.45L153.78 368.21L153.79 367.97L153.82 367.73L153.86 367.48L153.9 367.23L153.95 366.98L154.01 366.72L154.08 366.47L154.16 366.2L154.24 365.94L154.33 365.67L154.43 365.4L154.53 365.13L154.64 364.85L154.75 364.58L154.87 364.3L155 364.01L155.13 363.73L155.26 363.44L155.4 363.15L155.54 362.86L155.69 362.56L155.83 362.26L155.99 361.96L156.14 361.66L166.63 343.54L166.45 343.22L164.71 339.69L163.1 336.08L161.63 332.4L160.3 328.65L159.77 326.95L139.49 321.55L139.17 321.44L138.85 321.34L138.54 321.23L138.23 321.13L137.92 321.02L137.62 320.91L137.32 320.8L137.02 320.69L136.74 320.58L136.45 320.47L136.18 320.35L135.9 320.23L135.64 320.11L135.38 319.99L135.13 319.87L134.88 319.74L134.64 319.61L134.41 319.47L134.19 319.33L133.97 319.19L133.76 319.05L133.56 318.9L133.37 318.74L133.19 318.59L133.02 318.42L132.85 318.26L132.7 318.08L132.55 317.91L132.42 317.72L132.29 317.53L132.18 317.34L132.08 317.14L131.99 316.93L131.91 316.72L131.84 316.5L131.78 316.28L131.74 316.04L131.71 315.8L131.69 315.55L131.68 315.3L131.68 277.8L131.69 277.54L131.71 277.29L131.74 277.05L131.78 276.81L131.84 276.58L131.91 276.36L131.99 276.14L132.08 275.92L132.18 275.71L132.29 275.51L132.42 275.31L132.55 275.12L132.7 274.93L132.85 274.75L133.02 274.57L133.19 274.4L133.37 274.23L133.56 274.07L133.76 273.91L133.97 273.76L134.19 273.61L134.41 273.46L134.64 273.32L134.88 273.19L135.13 273.06L135.38 272.93L135.64 272.81L135.9 272.69L136.18 272.57L136.45 272.46L136.74 272.36L137.02 272.25L137.32 272.15L137.62 272.06L137.92 271.96L138.23 271.87L138.54 271.79L138.85 271.71L139.17 271.63L139.49 271.55L159.77 266.14L160.3 264.45L161.63 260.7L163.1 257.02L164.71 253.41L166.45 249.88L166.65 249.52L156.14 231.36L155.99 231.06L155.83 230.76L155.69 230.46L155.54 230.17L155.4 229.88L155.26 229.59L155.13 229.3L155 229.01L154.87 228.73L154.75 228.45L154.64 228.17L154.53 227.9L154.43 227.62L154.33 227.35L154.24 227.09L154.16 226.82L154.08 226.56L154.01 226.3L153.95 226.04L153.9 225.79L153.86 225.54L153.82 225.29L153.79 225.05L153.78 224.81L153.77 224.57L153.77 224.34L153.78 224.11L153.81 223.88L153.84 223.66L153.89 223.43L153.95 223.22L154.01 223L154.1 222.79L154.19 222.59L154.3 222.38L154.42 222.18L154.55 221.99L154.7 221.79L154.86 221.6L155.03 221.42L181.55 194.9L181.74 194.73L181.93 194.56L182.12 194.41L182.32 194.28L182.52 194.15L182.73 194.04L182.94 193.94L183.16 193.86L183.38 193.78L183.6 193.72L183.83 193.67L184.06 193.62L184.3 193.59L184.54 193.57L184.78 193.56L185.02 193.56L185.27 193.57L185.52 193.59L185.77 193.62L186.03 193.66L186.29 193.71L186.55 193.77L186.81 193.83L187.07 193.91L187.34 193.99L187.61 194.08L187.88 194.17L188.15 194.28L188.42 194.39L188.7 194.5L188.97 194.63L189.25 194.76L189.53 194.9L189.81 195.04L190.09 195.19L190.37 195.34L190.65 195.5L190.93 195.67L191.21 195.83L191.49 196.01L209.65 206.52L210.01 206.32L213.54 204.58L217.15 202.97L220.83 201.5L224.58 200.17L226.28 199.64L231.68 179.36L231.76 179.04L231.84 178.72L231.92 178.41L232.01 178.1L232.09 177.79L232.19 177.49L232.28 177.19L232.38 176.89L232.49 176.61L232.59 176.32L232.7 176.05L232.82 175.77L232.94 175.51L233.06 175.25L233.19 175L233.32 174.75L233.45 174.51L233.59 174.28L233.74 174.06L233.89 173.84L234.04 173.63L234.2 173.43L234.36 173.24L234.53 173.06L234.7 172.88L234.88 172.72L235.06 172.57L235.25 172.42L235.44 172.29L235.64 172.16L235.84 172.05L236.05 171.95L236.27 171.86L236.49 171.78L236.71 171.71L236.94 171.65L237.18 171.61L237.43 171.58L237.67 171.56L237.93 171.55L275.43 171.55L275.69 171.56L275.93 171.58ZM252.2 242.04L249.99 242.27L247.81 242.58L245.66 242.97L243.54 243.45L241.45 244.01L239.4 244.65L237.38 245.37L235.39 246.16L233.45 247.03L231.55 247.97L229.69 248.98L227.87 250.06L226.1 251.2L224.38 252.41L222.71 253.69L221.09 255.03L219.52 256.42L218.01 257.88L216.55 259.39L215.16 260.96L213.82 262.58L212.54 264.25L211.33 265.97L210.19 267.74L209.11 269.56L208.1 271.42L207.16 273.32L206.29 275.26L205.5 277.25L204.78 279.26L204.14 281.32L203.58 283.41L203.1 285.53L202.71 287.68L202.4 289.86L202.17 292.06L202.04 294.3L201.99 296.55L202.04 298.8L202.17 301.04L202.4 303.24L202.71 305.42L203.1 307.57L203.58 309.69L204.14 311.78L204.78 313.84L205.5 315.85L206.29 317.84L207.16 319.78L208.1 321.68L209.11 323.54L210.19 325.36L211.33 327.13L212.54 328.85L213.82 330.52L215.16 332.14L216.55 333.71L218.01 335.22L219.52 336.68L221.09 338.07L222.71 339.41L224.38 340.69L226.1 341.9L227.87 343.04L229.69 344.12L231.55 345.13L233.45 346.07L235.39 346.94L237.38 347.73L239.4 348.45L241.45 349.09L243.54 349.65L245.66 350.13L247.81 350.52L249.99 350.83L252.2 351.06L254.43 351.19L256.68 351.24L258.93 351.19L261.17 351.06L263.37 350.83L265.55 350.52L267.7 350.13L269.82 349.65L271.91 349.09L273.97 348.45L275.99 347.73L277.97 346.94L279.91 346.07L281.81 345.13L283.67 344.12L285.49 343.04L287.26 341.9L288.98 340.69L290.65 339.41L292.27 338.07L293.84 336.68L295.35 335.22L296.81 333.71L298.2 332.14L299.54 330.52L300.82 328.85L302.03 327.13L303.17 325.36L304.25 323.54L305.26 321.68L306.2 319.78L307.07 317.84L307.86 315.85L308.58 313.84L309.22 311.78L309.78 309.69L310.26 307.57L310.65 305.42L310.96 303.24L311.19 301.04L311.32 298.8L311.37 296.55L311.32 294.3L311.19 292.06L310.96 289.86L310.65 287.68L310.26 285.53L309.78 283.41L309.22 281.32L308.58 279.26L307.86 277.25L307.07 275.26L306.2 273.32L305.26 271.42L304.25 269.56L303.17 267.74L302.03 265.97L300.82 264.25L299.54 262.58L298.2 260.96L296.81 259.39L295.35 257.88L293.84 256.42L292.27 255.03L290.65 253.69L288.98 252.41L287.26 251.2L285.49 250.06L283.67 248.98L281.81 247.97L279.91 247.03L277.97 246.16L275.99 245.37L273.97 244.65L271.91 244.01L269.82 243.45L267.7 242.97L265.55 242.58L263.37 242.27L261.17 242.04L258.93 241.91L256.68 241.86L254.43 241.91L252.2 242.04Z" id="e52dRtbASd" fill="white" fill-opacity="1" filter="url(#shadow2601188)"></path></g><use xlink:href="#cXNZINnd4" opacity="1" fill="#000307" fill-opacity="1"></use></g><g><g><filter id="shadow13314594" x="343.07" y="288.34" width="149.64" height="149.22" filterUnits="userSpaceOnUse" primitiveUnits="userSpaceOnUse"><feFlood></feFlood><feComposite in2="SourceAlpha" operator="in"></feComposite><feGaussianBlur stdDeviation="2.24"></feGaussianBlur><feOffset dx="2" dy="2" result="afterOffset"></feOffset><feFlood flood-color="#000000" flood-opacity="0.5"></feFlood><feComposite in2="afterOffset" operator="in"></feComposite><feMorphology operator="dilate" radius="1"></feMorphology><feComposite in2="SourceAlpha" operator="out"></feComposite></filter><path d="M405.89 306.39L406 306.37L406.1 306.36L406.21 306.35L406.31 306.34L406.41 306.35L406.51 306.36L406.61 306.37L406.71 306.39L406.81 306.42L406.91 306.45L407.01 306.48L407.1 306.52L407.2 306.57L407.29 306.62L407.39 306.67L407.48 306.73L407.58 306.79L407.67 306.86L407.76 306.93L407.86 307L407.95 307.08L408.04 307.16L408.13 307.25L408.22 307.34L408.31 307.43L408.41 307.53L408.5 307.62L408.59 307.72L408.68 307.83L408.77 307.93L408.86 308.04L408.96 308.15L409.05 308.26L409.14 308.38L409.23 308.49L409.32 308.61L409.42 308.73L409.51 308.85L414.9 316.64L415.7 316.61L417.49 316.63L419.27 316.72L421.04 316.88L422.8 317.11L422.95 317.14L429.03 310.05L429.14 309.94L429.24 309.84L429.34 309.73L429.45 309.63L429.55 309.53L429.65 309.43L429.75 309.33L429.85 309.23L429.95 309.14L430.05 309.05L430.15 308.96L430.25 308.87L430.35 308.79L430.45 308.71L430.55 308.63L430.65 308.56L430.75 308.49L430.85 308.42L430.95 308.36L431.04 308.3L431.14 308.25L431.24 308.2L431.34 308.15L431.44 308.11L431.54 308.07L431.64 308.04L431.74 308.01L431.84 307.99L431.94 307.97L432.04 307.96L432.14 307.95L432.24 307.95L432.34 307.95L432.44 307.96L432.55 307.98L432.65 308L432.75 308.03L432.86 308.06L432.96 308.1L433.07 308.15L448.33 315.53L448.44 315.58L448.53 315.63L448.63 315.7L448.71 315.76L448.8 315.83L448.88 315.9L448.95 315.98L449.02 316.05L449.09 316.14L449.15 316.22L449.21 316.31L449.26 316.4L449.31 316.5L449.35 316.59L449.39 316.7L449.43 316.8L449.46 316.9L449.49 317.01L449.52 317.12L449.54 317.24L449.56 317.35L449.58 317.47L449.59 317.59L449.6 317.71L449.61 317.84L449.61 317.96L449.61 318.09L449.61 318.22L449.6 318.35L449.6 318.49L449.59 318.62L449.57 318.76L449.56 318.89L449.54 319.03L449.52 319.17L449.5 319.31L449.47 319.45L449.45 319.6L449.42 319.74L449.39 319.88L447.72 329.09L447.88 329.22L449.15 330.46L450.39 331.75L451.57 333.1L452.71 334.49L453.19 335.13L462.59 334.49L462.74 334.47L462.88 334.46L463.03 334.45L463.17 334.44L463.32 334.43L463.46 334.43L463.6 334.43L463.74 334.43L463.88 334.43L464.01 334.43L464.15 334.44L464.28 334.45L464.41 334.46L464.54 334.48L464.67 334.49L464.79 334.51L464.91 334.54L465.03 334.56L465.15 334.59L465.26 334.62L465.37 334.66L465.48 334.69L465.59 334.74L465.69 334.78L465.79 334.83L465.89 334.88L465.98 334.93L466.07 334.99L466.16 335.05L466.24 335.12L466.32 335.19L466.39 335.26L466.46 335.34L466.53 335.42L466.59 335.51L466.65 335.6L466.71 335.69L466.76 335.79L466.81 335.89L466.85 336L472.59 351.84L472.63 351.95L472.66 352.05L472.68 352.16L472.7 352.26L472.71 352.37L472.71 352.47L472.71 352.57L472.71 352.67L472.69 352.77L472.67 352.87L472.65 352.97L472.62 353.06L472.59 353.16L472.55 353.25L472.51 353.35L472.46 353.44L472.4 353.54L472.35 353.63L472.29 353.72L472.22 353.81L472.15 353.9L472.08 353.99L472 354.08L471.92 354.17L471.83 354.26L471.75 354.35L471.66 354.44L471.56 354.53L471.47 354.62L471.37 354.71L471.26 354.8L471.16 354.89L471.05 354.98L470.94 355.06L470.83 355.15L470.72 355.24L470.6 355.33L470.49 355.42L470.37 355.51L470.25 355.6L462.51 360.81L462.54 361.6L462.56 363.38L462.5 365.15L462.37 366.9L462.17 368.65L462.14 368.83L469.37 374.98L469.48 375.07L469.6 375.17L469.71 375.26L469.82 375.36L469.93 375.45L470.03 375.55L470.14 375.65L470.24 375.74L470.34 375.84L470.43 375.94L470.52 376.04L470.61 376.14L470.7 376.24L470.78 376.34L470.86 376.44L470.93 376.54L471 376.64L471.07 376.74L471.14 376.85L471.2 376.95L471.25 377.05L471.3 377.15L471.35 377.26L471.39 377.36L471.43 377.46L471.46 377.56L471.49 377.67L471.51 377.77L471.53 377.88L471.54 377.98L471.55 378.08L471.55 378.19L471.55 378.29L471.54 378.39L471.52 378.5L471.5 378.6L471.48 378.71L471.44 378.81L471.4 378.91L471.36 379.02L464.21 394.04L464.16 394.14L464.11 394.24L464.05 394.33L463.98 394.41L463.92 394.49L463.85 394.57L463.78 394.64L463.7 394.7L463.62 394.76L463.54 394.82L463.45 394.87L463.36 394.92L463.27 394.96L463.17 395L463.07 395.03L462.97 395.06L462.87 395.09L462.76 395.11L462.65 395.13L462.54 395.15L462.42 395.17L462.31 395.18L462.19 395.19L462.06 395.19L461.94 395.19L461.81 395.19L461.68 395.19L461.55 395.19L461.42 395.18L461.28 395.17L461.15 395.16L461.01 395.15L460.87 395.14L460.73 395.12L460.58 395.11L460.44 395.09L460.29 395.07L460.14 395.05L459.99 395.03L459.84 395.01L450.56 393.19L450.44 393.32L449.21 394.57L447.93 395.77L446.6 396.92L445.22 398.03L444.59 398.49L445.41 407.84L445.41 407.99L445.42 408.14L445.42 408.29L445.42 408.43L445.42 408.58L445.42 408.72L445.42 408.86L445.42 409L445.42 409.14L445.41 409.28L445.41 409.41L445.4 409.54L445.39 409.67L445.38 409.8L445.36 409.92L445.35 410.05L445.33 410.17L445.31 410.28L445.28 410.4L445.26 410.51L445.23 410.62L445.19 410.73L445.16 410.83L445.12 410.93L445.08 411.02L445.03 411.12L444.98 411.21L444.93 411.29L444.87 411.38L444.81 411.46L444.75 411.53L444.68 411.61L444.61 411.67L444.53 411.74L444.45 411.8L444.36 411.85L444.27 411.91L444.17 411.96L444.07 412L443.96 412.04L428.11 417.45L428.01 417.48L427.9 417.51L427.79 417.53L427.68 417.55L427.58 417.56L427.47 417.56L427.36 417.56L427.26 417.55L427.16 417.54L427.05 417.52L426.95 417.5L426.85 417.47L426.75 417.43L426.64 417.39L426.54 417.35L426.45 417.3L426.35 417.25L426.25 417.19L426.15 417.13L426.05 417.07L425.96 417L425.86 416.92L425.77 416.84L425.68 416.76L425.58 416.68L425.49 416.59L425.4 416.5L425.31 416.4L425.22 416.3L425.13 416.2L425.04 416.1L424.95 415.99L424.86 415.88L424.78 415.77L424.69 415.66L424.61 415.54L424.52 415.42L424.44 415.3L424.36 415.18L424.28 415.05L418.89 407.27L418.09 407.29L416.3 407.27L414.52 407.18L412.75 407.02L410.99 406.79L410.77 406.75L404.73 413.79L404.64 413.9L404.55 414.01L404.45 414.12L404.36 414.23L404.26 414.34L404.17 414.44L404.07 414.54L403.98 414.64L403.88 414.73L403.78 414.82L403.68 414.91L403.58 415L403.49 415.08L403.39 415.16L403.29 415.24L403.19 415.31L403.09 415.38L402.98 415.45L402.88 415.51L402.78 415.57L402.68 415.62L402.58 415.67L402.47 415.71L402.37 415.75L402.27 415.79L402.17 415.82L402.06 415.84L401.96 415.87L401.85 415.88L401.75 415.89L401.64 415.9L401.54 415.9L401.44 415.89L401.33 415.88L401.23 415.86L401.12 415.84L401.02 415.81L400.91 415.78L400.8 415.74L400.7 415.69L385.43 408.31L385.33 408.26L385.23 408.2L385.14 408.14L385.05 408.08L384.97 408.01L384.9 407.94L384.83 407.87L384.76 407.79L384.7 407.71L384.64 407.63L384.59 407.54L384.54 407.45L384.49 407.36L384.45 407.26L384.41 407.16L384.38 407.06L384.35 406.96L384.33 406.85L384.3 406.74L384.28 406.63L384.27 406.52L384.25 406.4L384.24 406.28L384.23 406.16L384.23 406.04L384.23 405.91L384.23 405.78L384.23 405.65L384.23 405.52L384.24 405.39L384.25 405.25L384.25 405.11L384.27 404.97L384.28 404.83L384.29 404.69L384.31 404.55L384.32 404.4L384.34 404.25L384.36 404.1L384.38 403.95L386.04 394.79L385.91 394.68L384.63 393.44L383.4 392.15L382.21 390.81L381.08 389.41L380.6 388.77L371.2 389.42L371.05 389.42L370.9 389.42L370.75 389.42L370.6 389.42L370.45 389.42L370.31 389.42L370.16 389.41L370.02 389.41L369.88 389.4L369.75 389.4L369.61 389.39L369.48 389.38L369.35 389.37L369.22 389.35L369.09 389.33L368.97 389.32L368.85 389.29L368.73 389.27L368.62 389.25L368.5 389.22L368.39 389.19L368.29 389.15L368.18 389.11L368.08 389.07L367.98 389.03L367.89 388.98L367.8 388.93L367.71 388.88L367.62 388.82L367.54 388.76L367.46 388.69L367.39 388.62L367.32 388.55L367.25 388.47L367.19 388.39L367.13 388.3L367.08 388.21L367.03 388.11L366.98 388.01L366.94 387.9L361.2 372.06L361.16 371.96L361.13 371.85L361.11 371.74L361.09 371.63L361.08 371.53L361.07 371.42L361.07 371.32L361.08 371.21L361.09 371.11L361.1 371.01L361.13 370.91L361.15 370.81L361.19 370.71L361.22 370.61L361.27 370.51L361.31 370.41L361.36 370.31L361.42 370.22L361.48 370.12L361.54 370.03L361.61 369.93L361.69 369.84L361.76 369.75L361.84 369.66L361.93 369.56L362.01 369.47L362.1 369.39L362.2 369.3L362.3 369.21L362.4 369.12L362.5 369.04L362.61 368.95L362.71 368.87L362.83 368.78L362.94 368.7L363.06 368.62L363.17 368.54L363.29 368.46L363.42 368.38L363.54 368.3L371.28 363.09L371.24 362.3L371.23 360.52L371.29 358.75L371.42 357L371.62 355.25L371.64 355.08L364.42 348.92L364.31 348.82L364.2 348.71L364.09 348.61L363.99 348.51L363.88 348.4L363.78 348.3L363.68 348.2L363.58 348.1L363.48 347.99L363.39 347.89L363.3 347.79L363.21 347.69L363.12 347.59L363.04 347.49L362.96 347.39L362.89 347.29L362.82 347.19L362.75 347.09L362.68 346.99L362.62 346.89L362.56 346.8L362.51 346.7L362.46 346.6L362.42 346.5L362.38 346.4L362.34 346.3L362.31 346.2L362.29 346.1L362.27 346L362.26 345.9L362.25 345.8L362.24 345.7L362.24 345.6L362.25 345.5L362.27 345.4L362.29 345.3L362.31 345.19L362.35 345.09L362.38 344.99L362.43 344.88L369.58 329.86L369.63 329.76L369.68 329.66L369.74 329.57L369.81 329.48L369.87 329.4L369.94 329.33L370.02 329.25L370.1 329.19L370.18 329.12L370.26 329.06L370.35 329.01L370.44 328.96L370.54 328.91L370.63 328.87L370.73 328.83L370.84 328.79L370.94 328.76L371.05 328.73L371.16 328.71L371.28 328.69L371.39 328.67L371.51 328.66L371.63 328.65L371.76 328.64L371.88 328.64L372.01 328.64L372.14 328.64L372.27 328.64L372.4 328.65L372.54 328.66L372.67 328.67L372.81 328.69L372.95 328.71L373.09 328.73L373.23 328.75L373.37 328.77L373.51 328.8L373.66 328.83L373.8 328.86L373.95 328.89L383.23 330.71L383.35 330.58L384.58 329.33L385.85 328.13L387.18 326.98L388.57 325.87L389.2 325.41L388.38 316.06L388.36 315.92L388.35 315.77L388.34 315.63L388.32 315.48L388.32 315.34L388.31 315.2L388.3 315.06L388.3 314.92L388.3 314.78L388.3 314.65L388.31 314.52L388.31 314.38L388.32 314.25L388.33 314.13L388.35 314L388.37 313.88L388.39 313.76L388.41 313.64L388.44 313.53L388.47 313.41L388.5 313.3L388.54 313.2L388.58 313.09L388.62 312.99L388.67 312.89L388.72 312.8L388.77 312.71L388.83 312.62L388.89 312.53L388.95 312.45L389.02 312.38L389.09 312.3L389.17 312.23L389.25 312.17L389.34 312.11L389.42 312.05L389.52 312L389.62 311.95L389.72 311.9L389.83 311.86L405.67 306.45L405.78 306.42L405.89 306.39ZM406.65 339.58L405.75 339.99L404.88 340.44L404.03 340.91L403.21 341.42L402.41 341.96L401.64 342.53L400.9 343.12L400.18 343.74L399.49 344.39L398.83 345.06L398.2 345.75L397.6 346.47L397.03 347.21L396.49 347.97L395.97 348.75L395.49 349.55L395.05 350.36L394.63 351.2L394.25 352.05L393.9 352.91L393.58 353.79L393.3 354.68L393.05 355.58L392.83 356.49L392.66 357.41L392.51 358.35L392.41 359.28L392.34 360.23L392.31 361.18L392.31 362.14L392.36 363.1L392.44 364.06L392.56 365.03L392.73 365.99L392.93 366.96L393.17 367.92L393.46 368.88L393.78 369.84L394.15 370.79L394.55 371.71L394.98 372.61L395.44 373.48L395.94 374.33L396.47 375.16L397.02 375.96L397.61 376.74L398.22 377.49L398.86 378.21L399.52 378.91L400.21 379.57L400.92 380.21L401.66 380.82L402.41 381.41L403.19 381.96L403.98 382.48L404.8 382.97L405.63 383.43L406.47 383.86L407.34 384.26L408.21 384.62L409.1 384.95L410 385.25L410.92 385.51L411.84 385.74L412.77 385.94L413.71 386.1L414.66 386.22L415.62 386.3L416.57 386.35L417.54 386.36L418.5 386.34L419.47 386.27L420.44 386.17L421.41 386.03L422.38 385.84L423.35 385.62L424.31 385.35L425.27 385.05L426.22 384.7L427.14 384.32L428.04 383.91L428.91 383.47L429.76 382.99L430.58 382.48L431.38 381.94L432.15 381.38L432.89 380.78L433.61 380.16L434.3 379.52L434.96 378.84L435.59 378.15L436.19 377.43L436.76 376.69L437.3 375.93L437.81 375.15L438.29 374.35L438.74 373.54L439.16 372.7L439.54 371.86L439.89 370.99L440.21 370.11L440.49 369.22L440.74 368.32L440.95 367.41L441.13 366.49L441.27 365.56L441.38 364.62L441.45 363.67L441.48 362.72L441.47 361.76L441.43 360.8L441.35 359.84L441.22 358.88L441.06 357.91L440.86 356.95L440.62 355.98L440.33 355.02L440.01 354.06L439.64 353.12L439.24 352.19L438.81 351.29L438.34 350.42L437.85 349.57L437.32 348.74L436.76 347.94L436.18 347.16L435.57 346.41L434.93 345.69L434.27 345L433.58 344.33L432.86 343.69L432.13 343.08L431.38 342.5L430.6 341.94L429.8 341.42L428.99 340.93L428.16 340.47L427.31 340.04L426.45 339.64L425.58 339.28L424.69 338.95L423.78 338.65L422.87 338.39L421.95 338.16L421.01 337.96L420.07 337.81L419.13 337.68L418.17 337.6L417.21 337.55L416.25 337.54L415.28 337.56L414.32 337.63L413.35 337.73L412.38 337.88L411.41 338.06L410.44 338.28L409.48 338.55L408.52 338.85L407.57 339.2L406.65 339.58Z" id="dbzwxg2Ku" fill="white" fill-opacity="1" filter="url(#shadow13314594)"></path></g><use xlink:href="#b1qSbBu1Vv" opacity="1" fill="#000307" fill-opacity="1"></use></g></g></g></svg>